<svg width="500" height="500" viewBox="0 0 500 500" fill="none" xmlns="http://www.w3.org/2000/svg">
<path d="M235.8 184.7V275.4C235.8 297.7 217.7 315.8 195.4 315.8H105L83.7 346.5L77.9 354.9V315.8H69.2C48 315.8 30.4 299.4 28.9 278.3C28.8 277.3 28.8 276.4 28.8 275.4V184.7C28.8 162.4 46.9 144.3 69.1 144.3C69.1 144.3 69.1 144.3 69.2 144.3H195.3C217.7 144.3 235.8 162.4 235.8 184.7Z" fill="white"/>
<path d="M195.4 144.3C217.7 144.3 235.8 162.4 235.8 184.7V275.4C235.8 297.7 217.7 315.8 195.4 315.8H105L83.7 346.5L77.9 354.9V315.8H69.2C48 315.8 30.4 299.4 28.9 278.3C28.8 277.3 28.8 276.4 28.8 275.4V184.7C28.8 162.4 46.9 144.3 69.1 144.3C69.1 144.3 69.1 144.3 69.2 144.3H195.4ZM195.4 142.9H69.2C46.1 142.9 27.4 161.6 27.4 184.7V275.4C27.4 276.4 27.4 277.4 27.5 278.4C29.1 300.2 47.3 317.1 69.2 317.1H76.5V354.8C76.5 355.4 76.9 355.9 77.5 356.1C77.6 356.1 77.8 356.2 77.9 356.2C78.3 356.2 78.8 356 79 355.6L84.8 347.2L105.7 317.1H195.3C218.4 317.1 237.1 298.4 237.1 275.3V184.7C237.1 161.6 218.4 142.9 195.4 142.9Z" fill="#231F20"/>
<path d="M477.1 208.3V299C477.1 320.3 460.5 338 439.3 339.3V378.5L436.9 375L414 342L412.2 339.4H310.5C288.2 339.4 270.1 321.3 270.1 299V208.3C270.1 186 288.2 167.9 310.5 167.9H436.6C459 167.9 477.1 186 477.1 208.3Z" fill="white"/>
<path d="M436.7 167.9C459 167.9 477.1 186 477.1 208.3V299C477.1 320.3 460.5 338 439.3 339.3V378.5L436.9 375L414 342L412.2 339.4H310.5C288.2 339.4 270.1 321.3 270.1 299V208.3C270.1 186 288.2 167.9 310.5 167.9H436.7ZM436.7 166.6H310.5C287.4 166.6 268.8 185.3 268.7 208.4V299C268.7 322.1 287.4 340.7 310.5 340.8H411.4L412.8 342.8L435.7 375.8L438.1 379.3C438.4 379.7 438.8 379.9 439.2 379.9C439.3 379.9 439.5 379.9 439.6 379.8C440.2 379.6 440.6 379.1 440.6 378.5V340.6C462 338.5 478.4 320.5 478.4 299V208.3C478.4 185.3 459.7 166.6 436.7 166.6Z" fill="#231F20"/>
<path d="M46.9 191L48 175.2C48 175.2 53.5 159.7 52.8 157.6C52.1 155.5 47.3 157.1 44.9 166.2C44.9 166.2 41 145.6 39.1 145.2C37.2 144.8 35.4 146.1 35.6 149.1C35.9 151.9 36.4 154.7 37 157.4C37 157.4 34.3 144.9 31.9 146C29.5 147.1 31.9 159 31.9 159C31.9 159 29.4 147.3 27.5 148.7C25.6 150.1 28.9 161.2 28.9 161.2C28.9 161.2 23.4 147 22.2 150.9C21 154.8 26.8 168.8 27 173.9C27.2 179 27.9 200.9 27.9 200.9L46.9 191Z" fill="white"/>
<path d="M28.1 201.8C28 201.8 27.9 201.8 27.8 201.7C27.6 201.6 27.5 201.4 27.5 201.1C27.5 200.9 26.8 179.1 26.6 174.1C26.5 172 25.4 168.3 24.3 164.4C22.6 158.6 21.1 153.2 21.8 150.8C22.1 149.8 22.7 149.7 23 149.7C24.1 149.7 25.4 151.6 26.7 154.2C26.3 151.5 26.3 149.1 27.3 148.3C27.6 148 28.1 148 28.4 148.1C29.1 148.4 29.8 149.4 30.4 150.8C30.3 148.2 30.6 146 31.8 145.4C32.2 145.2 32.7 145.2 33 145.4C34 146.1 34.7 147.1 35.1 148.2C35.1 147 35.6 145.8 36.5 145C37.3 144.3 38.4 144.1 39.5 144.3C41.2 144.7 43.5 154.3 45.3 163.2C47.1 158.3 49.8 156 51.7 156C52.6 155.9 53.4 156.5 53.6 157.3C54.3 159.5 49.8 172.4 48.8 175.2L47.5 191C47.5 191.2 47.4 191.4 47.2 191.6L28.5 201.8C28.4 201.8 28.3 201.8 28.1 201.8ZM23.1 151.1V151.2C22.5 153.2 24.1 159 25.6 164C26.8 168 27.8 171.8 28 174C28.2 178.4 28.8 195.4 28.9 199.9L46.3 190.4L47.4 175.1C47.4 175 47.4 175 47.4 174.9C50.1 167.4 52.6 158.9 52.2 157.8C52.2 157.7 52.1 157.4 51.6 157.5C50.2 157.5 47.3 160 45.6 166.4C45.5 166.7 45.2 166.9 44.9 166.9C44.6 166.9 44.3 166.7 44.2 166.3C42.4 156.9 39.9 146.6 38.8 145.8C38.2 145.7 37.6 145.8 37.2 146.2C36.5 147 36.1 148 36.3 149C36.5 151.9 37.7 157.2 37.7 157.2C37.8 157.6 37.5 157.9 37.2 158C36.9 158.1 36.5 157.8 36.4 157.5C35.2 151.9 33.2 146.7 32.3 146.6C31.2 147.2 31.6 153.4 32.7 158.9C32.8 159.3 32.5 159.6 32.1 159.7C31.7 159.8 31.4 159.5 31.3 159.2C30.2 154.3 28.7 150 27.9 149.4C27.2 150.2 28 155.6 29.6 161.1C29.7 161.5 29.5 161.8 29.2 161.9C28.9 162 28.5 161.8 28.3 161.5C26.6 157 24.2 151.9 23.1 151.1Z" fill="#231F20"/>
<path d="M237 246.2C237 246.2 244.9 241 246.4 237.7C247.9 234.4 247.9 228 249.5 224.9C251.1 221.8 253.8 226.3 252.1 235.2C252.1 235.2 263.6 216.2 264.8 218.5C266 220.8 264.8 221.1 261.8 227.3C261.8 227.3 264.1 220.7 266.7 222.2C269.3 223.7 262.8 231.9 262.8 231.9C262.8 231.9 267.9 224.6 269.3 227.3C270.7 230 264.1 236.8 264.1 236.8C264.1 236.8 271.1 228.1 271.5 231.3C271.9 234.5 263.5 245.3 246.4 259" fill="white"/>
<path d="M246.4 259.6C246.2 259.6 246 259.5 245.9 259.4C245.7 259.1 245.7 258.8 246 258.6C263.5 244.6 271.2 234.1 270.9 231.5C270.9 231.4 270.9 231.4 270.9 231.3C270.5 231.3 269 232.5 267.3 234.3C266.5 235.4 265.6 236.4 264.6 237.4C264.3 237.6 264 237.6 263.7 237.3C263.5 237.1 263.5 236.8 263.7 236.6C264.3 235.8 265.3 234.6 266.4 233.5C268.1 231.3 269.4 228.9 268.8 227.8C268.7 227.5 268.5 227.5 268.4 227.5C267.4 227.4 265.7 229.2 264.3 231C263.8 231.7 263.3 232.3 263.2 232.5C263 232.8 262.6 232.8 262.4 232.6C262.1 232.4 262.1 232 262.3 231.8C262.5 231.5 262.9 231 263.4 230.3C265.1 227.9 266.9 224.8 266.6 223.4C266.6 223.2 266.5 223.1 266.3 223C266.1 222.8 265.8 222.8 265.5 222.9C265 223.2 264.5 223.6 264.2 224.1C263.7 225.1 263.1 226.2 262.3 227.8C262.2 228.1 261.8 228.2 261.5 228.1C261.2 228 261.1 227.6 261.2 227.3C261.7 225.9 262.4 224.6 263.2 223.4L263.4 223.1C264.6 220.9 264.9 220.4 264.3 219.2C262.7 220 257.2 228.1 252.6 235.8C252.4 236.1 252.1 236.2 251.9 236C251.6 235.9 251.5 235.6 251.5 235.3C252.8 228.6 251.4 225.1 250.6 224.8C250.4 224.7 250.2 225.1 250 225.4C249.2 227.4 248.7 229.5 248.5 231.7C248.3 233.9 247.7 236.1 247 238.2C245.4 241.6 237.7 246.7 237.3 247C237 247.2 236.7 247.1 236.5 246.8C236.3 246.5 236.4 246.1 236.7 246C236.8 246 244.5 240.8 245.9 237.8C246.6 235.8 247.1 233.8 247.3 231.7C247.5 229.4 248.1 227.2 248.9 225.1C249.7 223.6 250.6 223.8 251 223.9C252.5 224.4 253.6 227.8 253.1 232.8C256.7 227 262.6 218.1 264.5 218.1C264.8 218.1 265.1 218.3 265.3 218.6C265.9 219.6 266 220.8 265.5 221.8C266 221.7 266.5 221.8 267 222.1C267.5 222.4 267.8 222.8 267.9 223.4C268 224.7 267.6 225.9 267 227C267.5 226.7 268 226.5 268.6 226.5C269.2 226.5 269.7 226.9 270 227.4C270.4 228.6 270.3 229.9 269.7 230.9C270.2 230.5 270.8 230.3 271.4 230.4C271.9 230.6 272.3 231.1 272.3 231.6C272.7 235.2 264 246.3 246.9 259.8C246.7 259.5 246.5 259.6 246.4 259.6Z" fill="#231F20"/>
<path d="M98.2 138.8C95.6 144.9 94.4 151.4 93.6 158L96.8 152.9C94.8 156 95.7 162.3 95.9 165.8C96.2 171.1 97.2 176.4 98.8 181.4C99.3 178.8 100 176.3 101.1 173.9L105.3 184.2C106.2 186.8 107.5 189.3 109.1 191.6C114.9 198.8 128 199.3 136.3 197.6C143.2 196.1 155.4 190.4 154 181.2L154.6 185.2C159.3 177.5 160.9 168.4 159.1 159.6L165.2 167.8C166 158.2 163.9 148.5 159.2 140.1C154.5 131.7 149.2 127.1 140.8 122.3C138.4 120.9 134.6 120.2 133.4 122.8C127.5 118.8 119.5 118.8 113.1 122C106.7 125.2 101.9 130.9 98.9 137.3C98.6 137.9 98.4 138.3 98.2 138.8Z" fill="white"/>
<path d="M127.6 199.2C120.2 199.2 112.5 197.2 108.4 192.1C106.7 189.8 105.4 187.3 104.5 184.6L101 175.8C100.3 177.7 99.8 179.6 99.4 181.6C99.3 182 99 182.2 98.6 182.2C98.3 182.2 98.1 182 98.1 181.7C96.5 176.6 95.5 171.3 95.2 165.9C95.2 165.4 95.1 164.8 95.1 164.1C94.9 161.8 94.8 159.5 94.9 157.2L94.2 158.4C94 158.7 93.7 158.8 93.4 158.7C93.1 158.6 92.9 158.3 93 158C93.7 152.5 94.8 145.3 97.7 138.6C97.9 138.1 98.1 137.7 98.3 137.2C101.6 130 106.8 124.4 112.8 121.5C119.6 118.2 127.5 118.4 133.2 122C133.6 121.4 134.2 121 134.9 120.8C136.9 120.1 139.5 121 141.1 121.9C150.2 127 155.2 131.9 159.8 139.9C164.6 148.4 166.7 158.2 165.9 168C165.9 168.3 165.7 168.5 165.4 168.6C165.1 168.7 164.8 168.6 164.7 168.4L160.3 162.5C161.2 170.6 159.4 178.8 155.1 185.7C155 185.9 154.7 186.1 154.4 186C154.3 186 154.3 186 154.2 185.9C151.9 192.6 142.8 197 136.4 198.4C133.4 198.9 130.5 199.2 127.6 199.2ZM101 173.3C101.3 173.3 101.5 173.5 101.6 173.7L105.7 184C106.6 186.6 107.8 189 109.4 191.2C115.2 198.3 128.4 198.5 135.9 196.9C143.2 195.3 154.3 189.7 153.1 181.3C153 180.9 153.3 180.6 153.7 180.5C154.1 180.4 154.4 180.7 154.5 181.1L154.8 183.1C158.7 176 159.9 167.7 158.3 159.7C158.2 159.3 158.5 159 158.9 158.9C159.2 158.9 159.4 159 159.6 159.2L164.6 165.9C165 157 162.9 148.2 158.5 140.5C154.1 132.7 149.2 128 140.4 123C138.9 122.2 136.8 121.5 135.3 122C134.7 122.2 134.2 122.6 134 123.1C133.9 123.3 133.8 123.4 133.6 123.5C133.4 123.6 133.2 123.5 133 123.4C127.6 119.7 119.9 119.4 113.4 122.6C107.7 125.4 102.7 130.7 99.5 137.6C99.3 138 99.1 138.5 98.9 138.9C96.8 144 95.4 149.4 94.7 154.9L96.2 152.5C96.4 152.2 96.9 152.2 97.2 152.4C97.4 152.6 97.5 152.9 97.4 153.2C95.8 155.7 96.2 160.4 96.5 163.9C96.5 164.5 96.6 165.1 96.6 165.7C96.8 170.1 97.5 174.4 98.7 178.6C99.1 176.9 99.7 175.2 100.4 173.6C100.5 173.5 100.7 173.3 101 173.3Z" fill="#231F20"/>
<path d="M168.6 315.8H107.4C103.4 273.1 97.8 203.6 103.6 194.9C104.8 193.2 106.4 191.7 108.2 190.7C109 190.2 109.9 189.8 110.8 189.5C115.2 187.7 120.7 186.9 126.3 186.8C130.8 186.7 135.2 187 139.6 187.6H139.7C143.5 188.1 147.2 188.9 150.8 190.1C151.3 190.3 151.7 190.5 152.2 190.7C157.4 193.3 165.8 283.9 168.6 315.8Z" fill="white"/>
<path d="M185 315.8H105L100.3 322.6L83.8 346.5C82.9 337.9 82 329.8 81.2 322C78.4 294.7 76.6 272.7 75.7 255.1C75.7 255 75.7 254.8 75.7 254.7C74.2 222.9 75.9 205.4 81.4 196.4C83.5 193 86.3 190.2 89.6 188C94.1 185.1 99.2 183.3 104.5 182.6C106.6 182.3 108.7 182.1 110.7 182.1C112 182.1 112.7 182.1 112.7 182.1C112.7 182.1 117.2 181.9 123.6 181.8H126C131.7 181.8 138.5 181.9 144.9 182.4C148 182.6 151.1 183 153.9 183.4H154.1L155.3 183.6C158.7 184.1 162.1 185.2 165.2 186.7C166.4 187.4 167.6 189.5 168.8 192.5C168.8 192.6 168.9 192.6 168.9 192.7C170 195.8 170.9 198.9 171.6 202.1C176 220.9 179.6 253.2 182.1 280.1C182.7 286.8 183.3 293.2 183.7 299C184.1 303.6 184.4 307.8 184.7 311.4C184.8 312.8 184.9 314.4 185 315.8Z" fill="#585555"/>
<path d="M110.9 196.7L139.8 259L140.7 202.2L110.9 196.7Z" fill="white"/>
<path d="M139.8 259.7C139.5 259.7 139.3 259.5 139.2 259.3L110.3 197C110.2 196.8 110.2 196.5 110.4 196.3C110.5 196.1 110.8 196 111 196L140.8 201.4C141.1 201.5 141.4 201.7 141.4 202.1L140.5 259C140.5 259.3 140.3 259.6 140 259.7H139.8ZM112.1 197.7L139.2 256L140 202.8L112.1 197.7Z" fill="#231F20"/>
<path d="M139.5 184.1L140.7 202.1C140.7 202.1 135.9 212.6 124.2 209.2C112.5 205.8 110.9 196.6 110.9 196.6C110.9 196.6 110.3 162.6 110.3 161.8C110.3 160.8 118.1 155 119.2 153.6C122.2 149.7 124.5 145.2 125.8 140.5L125.9 145.6C129.2 143 131.8 139.5 133.3 135.6C135 139.5 139.2 141.6 142.8 143.9C151.6 149.6 152.7 164.4 150.8 174C149 183.2 139.5 184.1 139.5 184.1Z" fill="white"/>
<path d="M128.7 210.6C127.1 210.6 125.5 210.4 124 210C112 206.5 110.2 197.3 110.2 196.9C110.1 193.3 109.6 162.7 109.6 162C109.6 161.3 110.8 160.1 115 156.6C116.3 155.6 117.5 154.5 118.7 153.3C121.7 149.5 123.9 145.1 125.1 140.4C125.2 140 125.6 139.8 126 139.9C126.3 140 126.5 140.2 126.5 140.5L126.6 144.2C129.3 141.8 131.4 138.7 132.7 135.3C132.8 134.9 133.3 134.8 133.6 134.9C133.8 135 133.9 135.1 134 135.3C135.4 138.4 138.5 140.4 141.6 142.3L143.2 143.3C152.6 149.4 153.3 165.1 151.5 174.1C149.9 182.2 142.5 184.2 140.2 184.6L141.4 202C141.4 202.1 141.4 202.2 141.3 202.3C141.3 202.5 137.5 210.6 128.7 210.6ZM125.2 144.5C123.9 147.9 122 151.2 119.8 154.1C118.6 155.3 117.3 156.5 115.9 157.6C114 159.1 111.2 161.5 111 162.1C111 162.7 111.4 185 111.6 196.7C111.6 196.9 113.3 205.4 124.4 208.6C130.5 210.6 137.2 207.8 140 202L138.8 184.1C138.8 183.7 139.1 183.4 139.4 183.4C139.8 183.4 148.4 182.4 150.1 173.9C151.8 165.2 151.2 150.3 142.4 144.5C141.9 144.2 141.4 143.8 140.8 143.5C138 141.7 135.1 139.9 133.4 137.2C131.8 140.7 129.4 143.8 126.3 146.2C126 146.4 125.6 146.4 125.3 146.1C125.2 146 125.2 145.8 125.2 145.7V144.5Z" fill="#231F20"/>
<path d="M139.8 193C135.3 193.3 131 191.7 127.8 188.5C122.8 183.2 123.4 180.3 123.4 180.3C123.4 180.3 131.6 185.3 139.5 184.1L139.8 193Z" fill="#231F20"/>
<path d="M138.8 193.7C134.5 193.7 130.4 192 127.4 189C122.3 183.6 122.7 180.6 122.8 180.3C122.8 180.1 123 179.9 123.2 179.8C123.4 179.7 123.6 179.7 123.8 179.8C123.9 179.8 131.9 184.7 139.4 183.5C139.6 183.5 139.8 183.5 139.9 183.6C140 183.7 140.1 183.9 140.1 184.1L140.4 193C140.4 193.3 140.2 193.6 139.8 193.7C139.8 193.7 139.4 193.7 138.8 193.7ZM124.2 181.6C124.5 182.8 125.4 185 128.3 188.1C131.2 190.9 135.1 192.5 139.1 192.4L138.8 184.9C132.7 185.6 126.6 182.8 124.2 181.6Z" fill="#231F20"/>
<path d="M137.7 154.7C137.7 154.7 142.8 165.3 141 166.8C139.2 168.3 135.1 166.5 135.1 166.5" fill="white"/>
<path d="M139 168.1C137.6 168 136.2 167.7 134.9 167.2C134.5 167.1 134.3 166.7 134.4 166.4C134.5 166 134.9 165.8 135.2 165.9C135.2 165.9 135.3 165.9 135.3 166C136.3 166.4 139.4 167.4 140.6 166.4C141.3 165.8 139.7 160.4 137.1 155.1C136.9 154.8 137.1 154.4 137.4 154.2C137.7 154 138.1 154.2 138.3 154.5C139.9 157.8 143.4 165.8 141.4 167.4C140.8 167.9 139.9 168.1 139 168.1Z" fill="#231F20"/>
<path d="M132.206 152.715C132.383 151.235 131.993 149.971 131.335 149.892C130.677 149.813 130 150.95 129.823 152.43C129.646 153.911 130.035 155.175 130.694 155.254C131.352 155.332 132.029 154.196 132.206 152.715Z" fill="#231F20"/>
<path d="M145.834 153.886C146.011 152.405 145.621 151.141 144.963 151.062C144.305 150.984 143.628 152.12 143.451 153.601C143.274 155.081 143.663 156.345 144.321 156.424C144.979 156.503 145.657 155.366 145.834 153.886Z" fill="#231F20"/>
<path d="M119.8 157.4C118.8 155.6 117.5 153.9 116 152.5C114.1 150.9 111.2 150.9 109.3 152.6C108.2 153.6 107.4 154.8 107 156.3C105.2 162.5 108.8 166.7 114.2 168.9" fill="white"/>
<path d="M114.2 169.5C114.1 169.5 114 169.5 113.9 169.4C107.4 166.8 104.6 161.9 106.3 156C106.7 154.4 107.6 153 108.8 152C111 150.1 114.2 150.1 116.4 152C118 153.4 119.4 155.1 120.4 157.1C120.6 157.4 120.4 157.8 120.1 158C119.8 158.2 119.4 158 119.2 157.7C118.3 155.9 117 154.4 115.5 153.1C113.8 151.7 111.3 151.7 109.7 153.2C108.7 154.1 108 155.2 107.6 156.6C105.5 163.9 111.6 167.2 114.4 168.3C114.7 168.4 114.9 168.8 114.8 169.2C114.7 169.4 114.4 169.5 114.2 169.5Z" fill="#231F20"/>
<path d="M137.1 177.7C133.3 177.7 132.2 173.4 132.1 171.2C132.1 171 132.2 170.8 132.3 170.7C132.4 170.6 132.6 170.5 132.8 170.6L142.6 172.1C143 172.2 143.2 172.5 143.1 172.9V173C142.7 174.6 140.8 177.7 137.1 177.7ZM133.5 172C133.7 173.5 134.4 176.4 137.1 176.4C139.1 176.3 140.9 175.1 141.6 173.2L133.5 172Z" fill="#231F20"/>
<path d="M168.8 192.3C168.8 192.3 197.9 253.4 202.9 254.6C211.6 256.7 243 239 243 239L253.4 257.3C253.4 257.3 221.2 298.6 198.3 292.7C181.3 288.3 164 249.5 164 249.5L168.8 192.3Z" fill="#585555"/>
<path d="M89.5 188C89.5 188 87.8 181.5 50.9 233.8C50.9 201.5 52.3 186 52.3 186L25.5 189.6C25.5 189.6 13.9 280.5 36 283.6C58.1 286.7 83.3 243.6 83.3 243.6L89.5 188Z" fill="#585555"/>
<path d="M34.2 181.1C33.8 181.1 33.5 180.8 33.5 180.4C33.5 172 44.2 165.9 44.7 165.7C45 165.5 45.4 165.6 45.6 166C45.8 166.3 45.7 166.7 45.3 166.9C45.2 167 34.8 172.9 34.8 180.5C34.9 180.7 34.6 181 34.2 181.1Z" fill="#231F20"/>
<path d="M184.7 311.9C184.3 311.9 184 311.6 184 311.3C181.6 272.8 171 202.9 170.9 202.2C170.8 201.8 171.1 201.5 171.5 201.4C171.9 201.3 172.2 201.6 172.3 202C172.4 202.7 182.9 272.7 185.4 311.3C185.4 311.5 185.1 311.8 184.7 311.9Z" fill="#231F20"/>
<path d="M56 277.1C55.8 277.1 55.6 277 55.5 276.9C55.2 276.6 55.2 276.2 55.5 275.9C55.7 275.7 76.6 254.5 90.6 234.5C90.8 234.2 91.2 234.1 91.5 234.3C91.5 234.3 91.5 234.3 91.6 234.3C91.9 234.5 92 235 91.8 235.3C77.7 255.4 56.8 276.7 56.6 276.9C56.4 277 56.2 277.1 56 277.1Z" fill="#231F20"/>
<path d="M252.1 244.8C252 244.8 251.9 244.8 251.9 244.7C251.6 244.6 251.5 244.2 251.6 243.9C253.3 239.9 251.6 235.4 251.6 235.4C251.5 235.1 251.6 234.7 251.9 234.6C252.2 234.5 252.6 234.6 252.7 234.9C252.8 235.1 254.6 239.9 252.7 244.3C252.6 244.6 252.4 244.8 252.1 244.8Z" fill="#231F20"/>
<path d="M111.5 258.6C111.2 258.6 106.1 257.9 102.1 251.3C98.1 244.7 99.6 231 99.7 230.4C99.7 230.1 100 229.8 100.4 229.8L119.7 230.2C120 230.2 120.3 230.4 120.4 230.8C120.5 231.3 122.4 243.1 120.4 248.7C118.4 254.3 112.2 258.5 112 258.7C111.8 258.6 111.7 258.6 111.5 258.6ZM101 231.1C100.8 233.9 100 245.1 103.3 250.5C106.6 255.9 110.4 256.9 111.4 257.1C112.5 256.3 117.4 252.6 119.1 248C120.8 243.4 119.5 233.8 119.2 231.4L101 231.1Z" fill="#231F20"/>
<path d="M412.5 169.7C412.5 169.7 421.6 150.4 436.1 164.1C448 175.3 429.8 202.6 442.3 206.9C442.3 206.9 430.7 205 427.6 195.5C424.5 186 425.4 183.3 425.4 183.3C425.4 183.3 419.4 186.9 413.7 183.8C408 180.7 412.5 169.7 412.5 169.7Z" fill="white"/>
<path d="M442.4 207.5H442.3C441.8 207.4 430.3 205.4 427.2 195.7C425.1 189.4 424.8 185.9 424.8 184.3C422.8 185.2 418.1 186.8 413.5 184.3C407.5 180.9 411.7 169.9 411.9 169.4C412.1 169 416.3 160.2 423.8 158.7C427.9 157.9 432.2 159.5 436.4 163.5C442.7 169.4 441 179.5 439.4 188.3C437.9 196.8 436.7 204.2 442.4 206.2C442.7 206.3 442.9 206.7 442.8 207C442.9 207.4 442.7 207.5 442.4 207.5ZM425.5 182.7C425.6 182.7 425.8 182.7 425.9 182.8C426.1 183 426.2 183.2 426.1 183.5C426.1 183.5 425.4 186.4 428.3 195.4C430.2 201.1 435.4 204 439 205.3C436.1 201.7 437.2 195.1 438.4 188.3C439.9 179.7 441.5 170 435.7 164.5C431.7 160.8 427.8 159.3 424.1 160C417.3 161.3 413.3 169.5 413.1 170C412.9 170.5 409.1 180.6 414.1 183.3C419.4 186.2 425.1 182.9 425.2 182.8C425.3 182.7 425.4 182.7 425.5 182.7Z" fill="#231F20"/>
<path d="M424 181.1C423.8 182.7 422.6 183.9 421.1 184.3C419 184.8 416.2 183.6 414.4 182C412.8 180.5 411.5 178.6 410.7 176.5C409.2 173.1 404.2 160.4 413.2 164.1C421.1 167.4 425.3 175.8 424 181.1Z" fill="#231F20"/>
<path d="M420.1 185C417.8 184.9 415.7 184 414 182.4C412.3 180.8 411 178.9 410.2 176.7C409.1 174.3 405.8 166.3 408.3 163.7C409.3 162.6 411.1 162.6 413.4 163.6C421.4 166.9 425.9 175.6 424.5 181.2C424.2 183 422.9 184.4 421.2 184.8C420.9 185 420.5 185 420.1 185ZM410.5 164.1C410 164.1 409.5 164.2 409.2 164.6C407.7 166.2 409.2 171.8 411.3 176.4C412.1 178.4 413.3 180.2 414.8 181.7C416.4 183.1 419 184.3 421 183.9C422.3 183.5 423.3 182.4 423.5 181.1C424.7 176 420.5 167.9 413.1 164.9C412.2 164.4 411.4 164.2 410.5 164.1Z" fill="#231F20"/>
<path d="M377.5 166.4C377.5 166.4 368.4 147.1 353.9 160.8C341.9 172 360.2 199.3 347.7 203.6C347.7 203.6 359.3 201.7 362.4 192.2C365.5 182.7 364.6 179.9 364.6 179.9C364.6 179.9 370.6 183.5 376.3 180.4C382 177.3 377.5 166.4 377.5 166.4Z" fill="white"/>
<path d="M347.7 204.2C347.4 204.2 347.1 203.9 347.1 203.6C347.1 203.3 347.3 203.1 347.5 203C353.2 201 351.9 193.7 350.5 185.1C349 176.2 347.3 166.1 353.5 160.2C357.8 156.2 362 154.6 366.1 155.4C373.6 156.8 377.9 165.7 378 166.1C378.2 166.6 382.5 177.6 376.4 181C371.9 183.5 367.2 181.9 365.1 181C365.1 182.6 364.8 186.1 362.7 192.4C359.7 202.1 348.2 204.1 347.7 204.2ZM364.1 156.5C360.9 156.5 357.6 158.1 354.3 161.2C348.5 166.6 350.2 176.4 351.6 185C352.8 191.9 353.9 198.4 351 202C354.5 200.7 359.8 197.8 361.7 192.1C364.7 183.1 363.9 180.2 363.9 180.2C363.8 179.9 364 179.5 364.3 179.4C364.5 179.3 364.7 179.4 364.8 179.5C364.8 179.5 370.6 182.9 375.9 180C380.9 177.2 377.1 167.2 376.9 166.7C376.7 166.2 372.6 158 365.8 156.7C365.3 156.5 364.7 156.5 364.1 156.5Z" fill="#231F20"/>
<path d="M366 177.9C366.2 179.5 367.4 180.7 368.9 181.1C371 181.6 373.8 180.4 375.6 178.8C377.2 177.3 378.5 175.4 379.3 173.3C380.8 169.9 385.8 157.2 376.8 160.9C368.9 164.2 364.8 172.6 366 177.9Z" fill="#231F20"/>
<path d="M369.9 181.8C369.5 181.8 369.1 181.8 368.8 181.7C367.1 181.3 365.7 179.8 365.5 178C364.2 172.4 368.6 163.7 376.6 160.4C379 159.4 380.7 159.5 381.7 160.5C384.2 163.1 380.9 171.1 379.8 173.5C378.9 175.6 377.6 177.6 376 179.2C374.3 180.7 372.2 181.6 369.9 181.8ZM379.6 160.9C378.7 161 377.9 161.2 377.1 161.5C369.6 164.6 365.5 172.6 366.7 177.7C366.9 179 367.8 180.1 369.2 180.5C371.2 180.9 373.8 179.7 375.4 178.3C376.9 176.8 378.1 175 378.9 173C381 168.4 382.5 162.8 381 161.3C380.5 161 380 160.8 379.6 160.9Z" fill="#231F20"/>
<path d="M382.1 159.3C374.8 163 368.5 167.9 367.8 178.7C367.1 190 366.5 203.8 375.8 210.9C385.1 217.8 397.6 218.9 407.9 213.6C418.1 208 424.3 197.2 424 185.6C423.2 161.9 399.1 150.7 382.1 159.3Z" fill="white"/>
<path d="M394 217.6C387.3 217.7 380.7 215.5 375.4 211.5C365.6 204 366.5 189.4 367.2 178.7C367.9 167.3 375 162.3 381.8 158.8C390.8 154.4 401.4 154.9 409.9 160.1C418.9 165.4 424.2 174.7 424.6 185.6C424.9 197.4 418.5 208.5 408.1 214.2C403.8 216.4 398.9 217.6 394 217.6ZM382 159.3L382.3 159.8C375.4 163.3 369 168 368.3 178.7C367.7 189.1 366.8 203.3 376 210.4C385.1 217.2 397.3 218.2 407.5 213C417.5 207.5 423.6 196.9 423.3 185.6C423 175.1 417.8 166.2 409.2 161.1C401 156.1 390.8 155.7 382.2 159.9L382 159.3Z" fill="#231F20"/>
<path d="M309.1 230.7C308.6 223.4 307 216.3 304.1 209.6C303.7 208.6 302.7 207.4 301.7 207.9C302.3 211 302.8 214.1 303.4 217.1C297.7 213.3 292.8 208.5 288.9 202.9C288.6 202.3 288.1 201.8 287.5 201.5C286.9 201.2 286.1 201.4 285.8 202C285.7 202.5 285.8 203.1 286.1 203.6C287.8 206.6 289.7 209.5 291.9 212.1C289.1 207.9 286.1 203.6 281.7 201.2C282.2 206 284 210.6 286.9 214.5L279.8 206.6C279.2 205.9 278.1 205.1 277.3 205.7C276.5 206.3 277.1 207.5 277.6 208.3L282.5 215.6C280 213.4 277.4 211.3 274.7 209.4C275.2 213.9 278.6 217.5 282.2 220.1C285.8 222.7 289.9 224.8 292.9 228.2C294.7 230.4 296.2 232.8 297.5 235.3" fill="white"/>
<path d="M297.6 236C297.4 236 297.2 235.9 297.1 235.7C295.9 233.2 294.4 230.9 292.6 228.7C290.4 226.5 288 224.5 285.3 222.9C284.2 222.2 283.1 221.4 282 220.7C277.2 217.3 274.6 213.5 274.2 209.6C274.2 209.4 274.3 209.1 274.5 209C274.7 208.9 275 208.9 275.2 209C276.7 210.1 278.3 211.3 279.7 212.5L277.2 208.7C276.2 207.3 276.2 206 277.1 205.3C278 204.6 279.2 205 280.4 206.2L283.3 209.5C282.1 206.9 281.4 204.1 281.1 201.3C281.1 201.1 281.2 200.9 281.4 200.7C281.6 200.6 281.8 200.6 282 200.7C283.1 201.3 284.2 202.1 285.2 202.9C285.1 202.5 285.1 202.2 285.3 201.8C285.5 201.4 285.8 201.1 286.2 200.9C286.7 200.7 287.3 200.7 287.8 201C288.5 201.4 289 201.9 289.4 202.6C293 207.7 297.5 212.2 302.6 215.8C302.1 213.2 301.6 210.6 301.2 208C301.2 207.7 301.3 207.5 301.5 207.4C301.9 207.2 302.4 207.1 302.8 207.3C303.7 207.7 304.3 208.5 304.7 209.4C307.6 216.2 309.3 223.3 309.7 230.7C309.7 231 309.5 231.3 309.1 231.3C308.8 231.3 308.5 231.1 308.5 230.7C308.1 223.5 306.4 216.5 303.6 209.8C303.4 209.2 303 208.8 302.5 208.4C303 211.3 303.5 214.1 304.1 217C304.2 217.3 303.9 217.6 303.6 217.7C303.4 217.7 303.3 217.7 303.2 217.6C297.4 213.8 292.4 208.9 288.4 203.3C288.1 202.8 287.7 202.4 287.2 202.1C287 202 286.7 202 286.5 202.1C286.4 202.1 286.3 202.2 286.3 202.3C286.2 202.5 286.4 203 286.6 203.3C287.1 204.3 287.7 205.2 288.3 206.1C289.8 207.9 291.2 209.9 292.4 211.7C292.6 212 292.5 212.4 292.3 212.6C292 212.8 291.6 212.7 291.4 212.5C289.9 210.7 288.5 208.8 287.3 206.9C285.9 205.2 284.2 203.6 282.4 202.4C283 206.7 284.8 210.7 287.4 214.2C287.6 214.5 287.6 214.8 287.3 215C287 215.2 286.7 215.2 286.5 214.9L279.4 206.9C278.9 206.4 278.2 205.8 277.8 206.1C277.4 206.4 277.8 207.2 278.2 207.8L283.1 215.1C283.3 215.4 283.2 215.7 283 215.9C282.8 216.1 282.4 216.1 282.2 215.9C280.1 214.1 277.9 212.3 275.7 210.6C276.5 213.7 278.9 216.6 282.7 219.4C283.8 220.2 284.9 220.9 286 221.6C291.4 224.5 295.7 229.2 298.2 234.8C298.4 235.1 298.3 235.5 298 235.6C297.8 235.9 297.7 236 297.6 236Z" fill="#231F20"/>
<path d="M355.3 230C350.5 234.5 339.7 251.5 329.9 269.2L309.6 226.6L293.1 231.5C293.1 231.5 308 310.3 322.8 313.5C337.6 316.7 357.6 281.6 357.6 281.6L380.1 219.7C380.1 219.8 362.5 223.3 355.3 230Z" fill="#585555"/>
<path d="M411.9 320.9C412.7 329.8 413.4 337.4 413.9 342L412.1 339.4H358.1C356.7 327.2 354.6 305.7 354 287.4C353.7 276.8 353.9 267.4 355.1 261.3C358 246.8 369 236.3 376 231.1C378.1 229.5 379.9 228.3 380.9 227.7L381.7 227.2C382.4 226.4 383.2 225.7 384.1 225C391.2 219.6 399.9 222.7 405.9 225.2L406.7 225.5C407.8 226 408.8 226.4 409.7 226.8C410.1 227 410.5 227.1 410.8 227.2C416 228.9 416.2 233.7 410.8 250.8C408.5 258 408.8 276 409.9 294.4C410.5 303.5 411.2 312.8 411.9 320.9Z" fill="white"/>
<path d="M382.5 224.6C382.3 225.5 382.1 226.4 381.8 227.2C381.5 228 381.2 228.9 380.8 229.9C380.6 230.3 380.5 230.7 380.3 231C377.3 244.8 374.5 276.3 373.7 287.2C373.5 290.7 372.9 296.4 372.2 304C372.1 305.5 371.9 307 371.8 308.6C371.8 308.7 371.8 308.7 371.8 308.8C371.6 310.5 371.5 312.2 371.3 314C371.3 314.1 371.3 314.2 371.3 314.3C371.2 315.6 371.1 316.9 371 318.3C370.9 319.5 370.8 320.6 370.7 321.8C370.2 327.2 369.8 333.1 369.4 339.3H344.6C345.6 329.2 346.7 318.8 347.6 309C348.1 304.1 348.6 299.4 349 294.8C351.2 272.6 353 254.7 354 249.6C354.4 247.6 354.9 245.7 355.4 243.9C359.2 230.8 365.8 224.8 371.5 222C371.9 221.8 372.4 221.6 372.8 221.4C375.1 220.5 377.5 219.9 379.9 219.8H380.1C380.7 219.8 381.3 219.8 381.6 219.8H381.7C381.9 219.8 382.1 219.8 382.4 219.9C382.6 220.4 382.8 221 382.7 221.6C382.8 222.7 382.7 223.6 382.5 224.6Z" fill="#585555"/>
<path d="M382.3 213.3L380.7 230.1C380.7 230.1 381.6 239.6 392 237.7C398.3 236.5 403.6 232.5 406.6 226.8L408 197.6C408.1 196.4 406.5 192.5 407.7 181.8C395.3 180.5 386.3 170.3 386.3 170.3C386.3 170.3 381.5 176.3 379.4 178.2C377.8 179.6 376.3 181.2 375.1 182.9C373.1 186 372.8 190 372.6 193.6C372.3 197.9 372.3 202.1 372.7 206.4C373.8 214.5 382.3 213.3 382.3 213.3Z" fill="white"/>
<path d="M389.3 238.6C387.3 238.7 385.3 238.1 383.7 236.9C381.7 235.2 380.4 232.8 380.1 230.2L381.6 214C379.3 214.1 377.1 213.5 375.2 212.2C373.5 210.8 372.4 208.8 372.2 206.5C371.8 202.2 371.7 197.9 372.1 193.6C372.3 190.2 372.6 185.8 374.7 182.6C375.9 180.8 377.4 179.2 379.1 177.8C381.1 176 385.9 170 385.9 170C386.1 169.7 386.5 169.7 386.8 169.9C386.8 169.9 386.8 169.9 386.9 170C387 170.1 395.9 180.1 407.9 181.3C408.1 181.3 408.2 181.4 408.3 181.5C408.4 181.6 408.4 181.8 408.4 181.9C407.5 190 408.2 194.2 408.5 196.1C408.6 196.6 408.7 197.1 408.7 197.6C408.7 197.6 408.7 198.1 407.3 226.8C407.3 226.9 407.3 227 407.3 227C404.2 232.8 398.7 236.9 392.2 238.2C391.3 238.5 390.3 238.6 389.3 238.6ZM381.3 230.2C381.6 232.4 382.8 234.5 384.5 235.9C386.4 237.3 388.9 237.7 392 237.1C398 235.9 403.2 232.1 406.1 226.7C406.2 224.6 407.5 197.8 407.5 197.6C407.5 197.2 407.4 196.8 407.4 196.4C406.7 191.8 406.6 187.1 407.2 182.4C396.5 181 388.6 173.4 386.5 171.3C385.3 172.8 381.7 177.2 380 178.7C378.4 180.1 377 181.6 375.8 183.3C373.9 186.3 373.6 190.2 373.4 193.7C373.1 197.9 373.1 202.2 373.5 206.4C373.6 208.3 374.5 210 376 211.2C378.6 213.2 382.2 212.7 382.2 212.7C382.4 212.7 382.6 212.7 382.7 212.9C382.8 213 382.9 213.2 382.9 213.4L381.3 230.2Z" fill="#231F20"/>
<path d="M381.6 221.6C381.6 221.6 388.4 222.5 393.2 218.3C398 214.1 397.7 209.5 397.7 209.5C397.7 209.5 389.9 213.8 382.2 213.3L381.6 221.6Z" fill="#231F20"/>
<path d="M383.3 222.2C382.7 222.2 382.1 222.2 381.6 222.1C381.3 222.1 381.1 221.8 381.1 221.5L381.7 213.2C381.7 212.9 382 212.6 382.3 212.7C389.7 213.2 397.4 209 397.5 209C397.7 208.9 397.9 208.9 398.1 209C398.3 209.1 398.4 209.3 398.4 209.5C398.4 209.7 398.6 214.5 393.7 218.8C390.7 221.1 387 222.3 383.3 222.2ZM382.3 221C384 221.1 389.1 221.1 392.9 217.8C395.2 215.9 396.7 213.3 397.2 210.4C395 211.5 389 214 382.9 213.8L382.3 221Z" fill="#231F20"/>
<path d="M390.3 189.7C390.3 189.7 384.2 197.3 385.3 198.8C386.4 200.3 390.1 199.7 390.1 199.7" fill="white"/>
<path d="M388.6 200.4C387.3 200.4 385.7 200.2 384.9 199.1C383.6 197.4 387.9 191.7 389.9 189.3C390.1 189.1 390.5 189 390.7 189.2C390.9 189.4 391 189.8 390.8 190C387.8 193.8 385.4 197.8 385.9 198.4C386.7 199.4 389.3 199.2 390.2 199.1C390.5 199.1 390.8 199.3 390.8 199.6C390.8 199.9 390.6 200.2 390.4 200.2C389.8 200.4 389.2 200.4 388.6 200.4Z" fill="#231F20"/>
<path d="M380.273 187.449C380.399 186.462 380.101 185.612 379.608 185.549C379.115 185.486 378.613 186.235 378.487 187.221C378.362 188.207 378.659 189.057 379.153 189.12C379.646 189.183 380.147 188.435 380.273 187.449Z" fill="#231F20"/>
<path d="M395.712 187.447C395.837 186.461 395.539 185.61 395.046 185.547C394.553 185.485 394.052 186.233 393.926 187.219C393.8 188.205 394.098 189.056 394.591 189.119C395.084 189.181 395.586 188.433 395.712 187.447Z" fill="#231F20"/>
<path d="M385.4 203.6L389.8 202.9C389.8 202.9 390.1 209.3 387.7 209.6C385.3 209.9 385.4 203.6 385.4 203.6Z" fill="white"/>
<path d="M387.5 210.1C387 210.1 386.6 209.9 386.3 209.6C384.8 208.2 384.8 204 384.9 203.5C384.9 203.2 385.1 203 385.4 202.9L389.8 202.2C390 202.2 390.1 202.2 390.3 202.3C390.4 202.4 390.5 202.6 390.5 202.7C390.5 203.4 390.8 209.6 387.9 210L387.5 210.1ZM386 204.1C386 205.7 386.3 208.1 387 208.8C387.1 208.9 387.3 209 387.5 209C388.8 208.8 389.2 205.6 389.1 203.6L386 204.1Z" fill="#231F20"/>
<path d="M403.2 188.5C404.6 185.6 408.4 184.9 411.2 185.7C413.1 186.2 414.5 187.8 414.8 189.7C414.9 190.9 414.8 192.1 414.5 193.2C414 195.3 413.1 197.3 411.9 199.1C411.3 200 410.5 200.8 409.6 201.3C408.4 201.9 406.9 201.7 405.9 200.7" fill="white"/>
<path d="M408.2 202.3C407.2 202.3 406.2 201.9 405.5 201.2C405.2 201 405.2 200.6 405.4 200.4C405.6 200.1 406 200.1 406.3 200.3C407.1 201.1 408.3 201.3 409.4 200.8C410.2 200.3 411 199.6 411.5 198.7C412.7 197 413.6 195 414 193C414.3 191.9 414.4 190.8 414.3 189.7C414.1 188 412.8 186.6 411.1 186.2C408.5 185.4 405 186.1 403.8 188.7C403.7 189 403.3 189.1 403 189C402.7 188.9 402.6 188.5 402.7 188.2C404.2 185.1 408.3 184.2 411.5 185.1C413.6 185.6 415.2 187.4 415.5 189.6C415.6 190.8 415.6 192.1 415.2 193.3C414.7 195.5 413.8 197.6 412.5 199.4C411.9 200.4 411 201.3 410 201.8C409.4 202.2 408.8 202.3 408.2 202.3Z" fill="#231F20"/>
<path d="M436.8 375L416.2 345.3L413.9 342L412.1 339.4H388.2C389 332.9 389.8 326.4 390.7 319.9C391.2 316.4 391.7 312.9 392.2 309.4C392.6 306.4 393.1 303.5 393.5 300.6C393.7 299.4 393.9 298.1 394 296.9C398.5 267.2 403.1 241 405.2 229.1C405.3 228.3 405.5 227.7 405.6 227C405.7 226.3 405.8 225.7 405.9 225.1C406.3 223.2 406.5 222.2 406.5 222.2L406.9 222.3C410.7 223.2 414.4 224.3 418.1 225.6C423.7 227.6 429.3 230.3 430.3 233.5C433.8 244.5 433.2 291.4 433.9 319.3C434 325.8 434.2 331.3 434.6 335C434.8 337.6 435.2 340.5 435.6 345.3C436.1 351.2 436.6 360.1 436.8 375Z" fill="#585555"/>
<path d="M402.2 303.4C397.1 302.5 392.4 300.2 387.7 298.1C385.8 297.3 383.8 296.6 381.8 295.9C379.5 295.2 377.2 293.8 374.7 293.7C373.2 293.7 373.6 295.8 374.1 296.7C374.7 297.4 375.4 298 376.2 298.5C377.7 299.5 380.7 301.3 381.3 303.1C379.4 303.6 377.4 303.4 375.4 303.6C373.3 303.8 371.2 304.1 369.1 304.6C367 305.1 365 305.5 363 306C361.3 306.5 359.3 306.6 357.7 307.4C357.3 307.6 356.9 307.9 356.8 308.4C356.7 310 360.3 309.8 361.2 309.7L377.6 307.9C371.9 308.4 366.2 309.5 360.6 311C360.1 311.1 359.6 311.4 359.2 311.8C357.8 313.9 363.7 314 364.3 314C367.3 314.1 370.3 314 373.4 313.8L366 315C364.4 315.3 362.7 315.5 361.1 316C360.2 316.2 359.4 316.6 358.7 317.2C358.6 317.3 358.5 317.4 358.5 317.5C358.5 317.7 358.7 317.8 358.8 317.9C360.2 318.5 361.7 318.7 363.2 318.7C366.3 318.8 369.3 318.6 372.4 318.1L363.3 319.1C362.5 319.1 361.7 319.4 361.1 319.9C361 320.4 361.2 321 361.6 321.3C362.1 321.6 362.6 321.7 363.1 321.8C366.5 322.2 369.8 321.8 373.2 321.8C376.9 321.8 380.5 321.6 384.1 321.1C391.3 320.2 398.3 318.1 404.8 314.9" fill="white"/>
<path d="M366.9 322.5C365.7 322.5 364.5 322.4 363.3 322.3C362.7 322.3 362 322.1 361.5 321.7C360.8 321.2 360.5 320.4 360.7 319.6C360.7 319.5 360.8 319.5 360.8 319.4C360.9 319.3 361 319.2 361.2 319.1C360.4 319 359.6 318.8 358.8 318.4C358.4 318.3 358.1 317.9 358.1 317.5C358.1 317.2 358.2 316.9 358.4 316.7C359.2 316 360.1 315.5 361.1 315.4C362.3 315.1 363.6 314.9 364.8 314.6H364.5C361.2 314.5 359.3 314 358.7 313C358.4 312.5 358.5 311.9 358.8 311.5C359.2 311 359.8 310.6 360.5 310.5L361.4 310.3C360.8 310.4 357.9 310.6 356.8 309.5C356.5 309.2 356.3 308.8 356.3 308.3C356.4 307.6 356.9 307.1 357.5 306.8C358.6 306.3 359.8 306 361 305.8C361.6 305.7 362.2 305.5 362.8 305.4C364.8 304.8 366.9 304.3 368.9 303.9C370.9 303.5 373.1 303.2 375.2 302.9C376 302.8 376.7 302.8 377.5 302.8C378.4 302.8 379.4 302.7 380.3 302.6C379.2 301.3 377.9 300.2 376.4 299.4L375.5 298.8C374.7 298.3 374 297.7 373.4 297C372.8 296.1 372.6 294.9 373 293.9C373.3 293.4 373.9 293 374.5 293.1C376.2 293.2 377.9 293.7 379.5 294.5C380.3 294.8 381 295.1 381.7 295.4C383.7 296 385.7 296.8 387.6 297.6C388.5 298 389.4 298.4 390.2 298.7C394 300.3 397.9 302.1 402 302.8C402.3 302.9 402.6 303.2 402.5 303.5C402.4 303.8 402.1 304 401.8 304C397.6 303.3 393.6 301.5 389.8 299.8L387.2 298.7C385.3 297.9 383.4 297.2 381.4 296.6C380.6 296.4 379.8 296 379 295.7C377.6 295 376 294.6 374.4 294.4C374.1 294.4 374.1 294.5 374 294.6C373.8 295.2 373.9 295.9 374.3 296.4C374.8 297 375.4 297.5 376.1 297.9L377 298.5C378.7 299.7 381.1 301.3 381.6 303C381.7 303.3 381.5 303.6 381.2 303.7C379.9 304 378.7 304.1 377.4 304.1C376.7 304.1 375.9 304.1 375.3 304.2C373.2 304.4 371.1 304.7 369.1 305.2C367.1 305.7 365.1 306.1 363.1 306.6C362.5 306.8 361.8 306.9 361.2 307.1C360.1 307.3 359 307.6 357.9 308C357.5 308.2 357.4 308.4 357.4 308.4C357.4 308.5 357.4 308.6 357.5 308.6C358 309.1 359.7 309.2 361.1 309L377.4 307.4H377.5C377.8 307.4 378.1 307.6 378.2 307.9C378.2 308.2 378 308.5 377.7 308.6C372 309.1 366.4 310.2 360.8 311.6C360.4 311.7 360.1 311.8 359.8 312.1C359.7 312.2 359.7 312.3 359.7 312.4C359.9 312.8 361.5 313.3 364.4 313.4C367.3 313.5 370.4 313.4 373.4 313.2C373.7 313.2 374 313.4 374 313.7C374 314 373.8 314.3 373.5 314.4L366.1 315.6C364.5 315.9 362.8 316.1 361.2 316.6C360.5 316.7 359.9 317 359.3 317.4C360.6 317.8 361.9 318.1 363.2 318C364.6 318 366.1 318 367.5 317.9L372.3 317.4C372.6 317.4 372.9 317.6 373 317.9C373 318.2 372.8 318.5 372.5 318.6C370.9 318.8 369.3 319 367.6 319.1L363.3 319.6C362.7 319.6 362.1 319.8 361.6 320.1C361.6 320.3 361.7 320.6 362 320.7C362.4 320.9 362.8 321 363.3 321.1C365.5 321.3 367.7 321.4 369.9 321.2C371 321.2 372.1 321.1 373.3 321.1H373.5C377 321.1 380.6 320.9 384.1 320.4C391.2 319.5 398.1 317.4 404.5 314.3C404.8 314.1 405.1 314.3 405.3 314.5C405.5 314.8 405.3 315.2 405 315.3C398.5 318.5 391.4 320.6 384.2 321.5C380.6 322 376.9 322.2 373.2 322.2C372.1 322.2 371 322.2 369.9 322.3C368.8 322.4 368 322.5 366.9 322.5Z" fill="#231F20"/>
<path d="M430.3 233.4C430.3 233.4 473.1 311.2 457.7 316.4C451.4 318.5 395.2 321.8 395.2 321.8L389.2 297.5L431.3 291L430.3 233.4Z" fill="#585555"/>
<path d="M379.4 197.2C379.1 197.2 378.8 197.2 378.5 197.2C373.1 196.7 369 191.9 369.5 186.5C370 181.1 374.8 177 380.2 177.5C385.6 178 389.7 182.8 389.2 188.2C389 190.8 387.7 193.2 385.7 194.9C384 196.4 381.8 197.2 379.4 197.2ZM379.4 178.6C374.6 178.6 370.7 182.5 370.7 187.3C370.7 192.1 374.6 196 379.4 196C383.9 196 387.7 192.6 388.1 188.1C388.5 183.3 385 179.1 380.2 178.7C379.9 178.6 379.7 178.6 379.4 178.6Z" fill="#231F20"/>
<path d="M398.7 197.3C398.4 197.3 398.1 197.3 397.8 197.3C392.4 196.7 388.4 191.8 389 186.4C389.6 181.1 394.2 177.2 399.5 177.6C404.9 178.1 409 182.9 408.5 188.3C408.1 193.4 403.8 197.3 398.7 197.3ZM398.7 178.7C393.9 178.7 390 182.5 389.9 187.3C389.9 192.1 393.7 196 398.5 196.1C400.6 196.1 402.6 195.4 404.2 194C406 192.5 407.1 190.4 407.3 188.1C407.7 183.3 404.2 179.1 399.4 178.7C399.2 178.7 398.9 178.7 398.7 178.7Z" fill="#231F20"/>
<path d="M389.3 298.3C389 298.3 388.7 298.1 388.7 297.7C388.7 297.4 388.9 297.1 389.3 297.1L430.8 290.7L420.8 247.6C420.7 247.3 420.9 247 421.2 246.9C421.5 246.8 421.8 247 421.9 247.3L432 291C432 291.2 432 291.3 431.9 291.5C431.8 291.6 431.7 291.7 431.5 291.8L389.3 298.3Z" fill="#231F20"/>
<path d="M347.5 309.7C347.1 309.7 346.9 309.4 346.9 309C347 308.4 354.7 244.8 354.7 243.9L355.3 244L355.4 243.4C355.9 243.5 355.9 243.5 354.7 254.3L348.1 309.2C348.1 309.4 347.8 309.7 347.5 309.7Z" fill="#231F20"/>
<path d="M338 284.5C337.8 284.5 337.6 284.4 337.5 284.2L312.3 233.7C312.2 233.4 312.3 233 312.6 232.9C312.9 232.8 313.2 232.9 313.4 233.2L338.6 283.7C338.8 284 338.6 284.4 338.3 284.5C338.2 284.5 338.1 284.5 338 284.5Z" fill="#231F20"/>
<path d="M425.5 183.9C425.2 183.9 424.9 183.7 424.8 183.4C424.8 183.1 425 182.8 425.3 182.8C425.3 182.8 427.4 182.2 431.3 178.4C431.5 178.2 431.9 178.2 432.2 178.4C432.4 178.6 432.4 179 432.2 179.2C428.1 183.3 425.8 183.9 425.7 183.9C425.7 183.9 425.6 183.9 425.5 183.9Z" fill="#231F20"/>
<path d="M277.6 330.5L284.1 312.7L268.6 327.1C261.9 325.2 255 324.3 248 324.3C222 324.3 201 336.8 201 352.3C201 367.8 222.1 380.3 248 380.3C273.9 380.3 295 367.8 295 352.3C295 343.5 288.2 335.6 277.6 330.5Z" fill="white"/>
<path d="M248 380.9C221.7 380.9 200.3 368.1 200.3 352.3C200.3 336.5 221.7 323.7 248 323.7C254.9 323.7 261.8 324.6 268.4 326.4L283.6 312.3C283.9 312.1 284.3 312.1 284.5 312.3C284.7 312.5 284.7 312.7 284.6 313L278.3 330.2C289.3 335.7 295.6 343.7 295.6 352.3C295.7 368 274.3 380.9 248 380.9ZM248 324.9C222.4 324.9 201.6 337.1 201.6 352.2C201.6 367.3 222.4 379.5 248 379.5C273.6 379.5 294.4 367.3 294.4 352.2C294.4 344 288.2 336.3 277.3 331.1C277 331 276.8 330.6 277 330.3L282.5 315.1L269 327.6C268.8 327.8 268.6 327.8 268.4 327.7C261.7 325.8 254.9 324.9 248 324.9Z" fill="#D1D3D4"/>
<path d="M279.2 342.6H216.8C216.4 342.6 216.2 342.2 216.2 341.9C216.2 341.6 216.5 341.4 216.8 341.3H279.2C279.6 341.3 279.8 341.7 279.8 342C279.7 342.4 279.5 342.6 279.2 342.6Z" fill="#D1D3D4"/>
<path d="M279.2 353.3H216.8C216.4 353.3 216.1 353 216.1 352.6C216.1 352.2 216.4 351.9 216.8 351.9H279.2C279.6 351.9 279.9 352.2 279.9 352.6C279.9 353 279.5 353.3 279.2 353.3Z" fill="#D1D3D4"/>
<path d="M260.2 364H216.7C216.3 364 216 363.7 216 363.3C216 362.9 216.3 362.6 216.7 362.6H260.2C260.6 362.6 260.9 362.9 260.9 363.3C260.9 363.7 260.6 364 260.2 364Z" fill="#D1D3D4"/>
<path d="M217.8 162.6L212.2 178L225.5 165.6C231.3 167.2 237.2 168 243.2 168C265.6 168 283.7 157.2 283.7 143.9C283.7 130.6 265.6 119.8 243.2 119.8C220.8 119.8 202.7 130.6 202.7 143.9C202.8 151.5 208.7 158.2 217.8 162.6Z" fill="white"/>
<path d="M212.2 178.6C212.1 178.6 211.9 178.6 211.8 178.5C211.5 178.3 211.4 178 211.6 177.7L217 163C207.5 158.3 202.1 151.4 202.1 144C202.1 130.4 220.6 119.2 243.3 119.2C266 119.2 284.5 130.3 284.5 144C284.5 157.7 266 168.7 243.3 168.7C237.4 168.7 231.5 167.9 225.7 166.3L212.6 178.4C212.6 178.6 212.4 178.6 212.2 178.6ZM243.3 120.5C221.3 120.5 203.4 131 203.4 143.9C203.4 150.9 208.8 157.5 218.1 162C218.4 162.2 218.5 162.5 218.4 162.8L213.8 175.5L225.1 165C225.3 164.8 225.5 164.8 225.7 164.9C231.4 166.5 237.3 167.3 243.3 167.3C265.3 167.3 283.2 156.8 283.2 143.9C283.2 131 265.3 120.5 243.3 120.5Z" fill="#D1D3D4"/>
<path d="M273.8 137.8H220C219.6 137.8 219.4 137.4 219.4 137.1C219.4 136.8 219.7 136.6 220 136.5H273.8C274.2 136.5 274.4 136.9 274.4 137.2C274.3 137.5 274.1 137.8 273.8 137.8Z" fill="#D1D3D4"/>
<path d="M257.3 149.6H220C219.6 149.6 219.4 149.2 219.4 148.9C219.4 148.6 219.7 148.4 220 148.3H257.3C257.7 148.3 257.9 148.7 257.9 149C257.9 149.3 257.6 149.5 257.3 149.6Z" fill="#D1D3D4"/>
</svg>
