<svg width="127" height="114" viewBox="0 0 127 114" fill="none" xmlns="http://www.w3.org/2000/svg">
<path d="M85 111.4C85 111.1 85.1 110.8 85 110.5C84.8 110.2 84.7 110 84.5 109.8C84 109.2 83.5 108.7 82.9 108.1L77 102.1L81.6 97.4L84.1 94.7C84.5 94.3 85 93.5 85 92.9V92.5C85 91.6 84.6 91.1 83.7 90.9L83.9 91H83.2C82.6 91 80.9 92.6 80.5 93.1C79 94.6 78 96 76 97.5V85.6C76 84.5 75.4 84 74.3 84H74C72.9 84 72 84.5 72 85.6V111.5C72 112.6 72.9 113 74 113H74.3C75.4 113 76 112.5 76 111.5V106.9L79 109.8C79.9 110.7 80.8 111.3 81.6 112.1C82 112.5 82.8 113 83.4 113H83.7C84.7 113 85 112.5 85.2 111.7L85 111.8V111.4ZM124.1 91H123.7C121.5 91 119.5 91.6 117.7 92.9C114.7 95.1 113 98 113 101.8V111.6C113 112.7 113.4 113 114.5 113H114.8C115.9 113 117 112.6 117 111.6V102.4C117 100.4 117.4 98.5 118.9 97C120.1 95.8 121.6 94.8 123.3 94.8C124.6 94.8 126.1 94.5 126.1 92.9C126.1 91.7 125.2 91 124.1 91ZM108.7 96C107.6 94.2 106.1 92.8 104.2 91.9C100.7 90.2 97 90 93.6 92L93.1 92.3C91.7 93.1 90.5 94.1 89.6 95.4C87 99.2 86.7 103.5 89 107.5L89.2 107.9C90.2 109.6 91.5 111 93.2 111.9C96.8 113.9 100.7 114.1 104.3 112.1L104.6 111.9C105.6 111.3 105.8 110.3 105.3 109.3C105.1 108.9 104.7 108.6 104.3 108.4H104.1C103.4 108.3 101.5 109.1 100.8 109.4C99.4 109.6 97.8 109.7 96.4 109.2L104 102.6C105.1 101.6 106.3 100.5 107.5 99.6C108.5 98.8 109.5 97.7 108.7 96.3V96ZM101.8 99.6L93.3 106.9C93 106.6 92.8 106.2 92.6 105.9C92 104.9 91.6 103.7 91.6 102.5C91.5 99.5 92.6 97 95.3 95.5C97.3 94.3 99.5 94.1 101.7 94.9C102.8 95.3 104.1 96 104.8 97C103.8 97.9 102.7 98.7 101.8 99.6ZM21 84H20.7C19.6 84 19 84.4 19 85.5V93.6C17 91.8 14.6 91.1 11.8 91.1H11C9.1 91.1 7.3 91.4 5.6 92.4C2 94.5 0 97.6 0 101.8V102.6C0 104.5 0.5 106.1 1.5 107.8C3.6 111.4 6.9 113.2 11 113.2H11.8C13.7 113.2 15.7 112.9 17.3 112C20.9 109.9 23 106.8 23 102.7V85.7C23 84.4 22.1 84 21 84ZM17.9 105.8C16.4 108.3 14.2 109.7 11.3 109.7C10.1 109.7 8.9 109.4 7.9 108.8C5.3 107.4 3.8 105.1 3.8 102.1C3.8 101 4 100 4.5 99C5.9 96.1 8.2 94.5 11.4 94.5C13 94.5 14.4 95 15.6 95.9C17.7 97.4 18.9 99.4 18.9 102C19 103.4 18.6 104.6 17.9 105.8ZM36.6 91H36C34.1 91 32.2 91.3 30.6 92.3C27 94.4 25 97.5 25 101.7V102.5C25 104.4 25.5 106 26.5 107.7C28.6 111.3 31.9 113.1 36.1 113.1H36.9C38.8 113.1 40.7 112.8 42.4 111.9C46 109.8 48.1 106.7 48.1 102.6V101.8C48.1 100 47.5 98.5 46.7 97C44.5 93 41 91 36.6 91ZM43 105.8C41.5 108.2 39.4 109.7 36.5 109.7C35.2 109.7 33.9 109.4 32.7 108.7C30.2 107.2 28.8 105.1 28.8 102.2C28.8 101.1 29 100.1 29.5 99.1C30.9 96.2 33.2 94.6 36.4 94.6C37.9 94.6 39.2 95 40.4 95.8C42.6 97.3 43.9 99.4 43.9 102.1C44 103.3 43.7 104.6 43 105.8ZM67.5 92.4L67.4 92.5C65.7 91.4 63.8 91 61.8 91H61C59.1 91 57.2 91.3 55.6 92.3C52 94.4 50 97.5 50 101.6V102.4C50 103.4 50.2 104.3 50.4 105.3C52 110.8 56.3 113.9 62.1 113.5C63.7 113.4 68 112.9 68 110.5V110.1C68 109.2 67.3 108.4 66.5 108.2L66.4 108H65.7L65.5 108.3C64.6 108.7 63.1 109.5 62.1 109.5C60.9 109.5 59.6 109.5 58.5 108.9C55.6 107.5 53.9 105.2 53.9 102C53.9 100.9 54.1 99.9 54.6 98.9C56 96.1 58.3 94.3 61.5 94.4C62.1 94.4 63.2 94.7 63.8 95C64.3 95.2 65.6 96 66.2 96H66.4L66.5 95.8C67.4 95.6 68.1 94.9 68.1 94V93.6C68.1 93.2 67.9 92.9 67.7 92.6L67.5 92.4ZM4.8 61.2L4.9 61.4C12.8 74.8 26.6 80.4 41.7 80.4C70.9 80.4 95 67.3 106 39.8C113.4 40.2 121 38 124.6 30.9L125.5 29.1L123.7 28.1C119.4 25.6 113.7 25.3 108.9 26.7C108.3 21.5 104.9 17 100.9 13.8L99.3 12.5L98 14.1C95.3 17.2 94.5 22.4 94.9 26.4C95.2 29.3 96.1 32.3 97.9 34.7C96.5 35.5 95 36.6 93.6 37.1C90.8 38.1 87.7 39.1 84.7 39.1H78V25H65V0H50V12H25V25H12V39H0.8L0.6 40.5C0.1 46.9 0.9 53.1 3.6 59L4.8 61.2ZM65 28H76V39H65V28ZM52 2H63V13H52V2ZM52 15H63V26H52V15ZM52 28H63V39H52V28ZM39 15H50V26H39V15ZM39 28H50V39H39V28ZM40.1 59.2C40.1 60.9 38.7 62.3 37 62.3C35.3 62.3 33.9 60.9 33.9 59.2C33.9 57.5 35.3 56.1 37 56.1C38.7 56.2 40.1 57.5 40.1 59.2ZM27 15H37V26H27V15ZM27 28H37V39H27V28ZM14 28H25V39H14V28ZM16.4 66C18 66 19.6 66 21.1 65.9C25 65.7 28.4 65.2 31.2 64.4C33.5 69.7 37.7 74.6 45.2 78.2L41.7 78.3C25.9 78.2 17.4 72.9 10.4 65.9C12.5 66 14.5 66 16.4 66ZM37 61.4C38.2 61.4 39.2 60.4 39.2 59.2C39.2 58.9 39.1 58.6 39 58.4C38.8 58.7 38.6 58.9 38.2 58.9C37.7 58.9 37.3 58.5 37.3 58C37.3 57.7 37.5 57.4 37.7 57.2C37.6 57.1 37.3 57 37 57C35.8 57 34.8 58 34.8 59.2C34.9 60.4 35.8 61.4 37 61.4Z" fill="#585555"/>
</svg>
