<svg width="90" height="126" viewBox="0 0 90 126" fill="none" xmlns="http://www.w3.org/2000/svg">
<path d="M0.56897 26L8.65597 115.919L44.945 125.601L81.335 116.102L89.431 26H0.56897ZM72.61 46.471L72.103 52.305L71.88 55H29.311L30.328 67H70.868L70.597 69.231L67.982 98.14L67.79 99.83L45 105.964V105.959L44.973 105.971L22.196 100.055L20.65 83H31.818L32.609 91.46L44.994 94.599L45 94.365V94.377L57.412 91.728L58.708 78H20.153L17.419 47.164L17.152 44H72.876L72.61 46.471ZM8.95597 0.627014H14.578V6.18301H19.722V0.627014H25.345V17.449H19.722V11.816H14.579V17.449H8.95597V0.627014ZM32.738 6.20601H27.788V0.627014H43.313V6.20601H38.361V17.449H32.738V6.20601ZM45.777 0.627014H51.639L55.246 6.53801L58.849 0.627014H64.714V17.449H59.113V9.11101L55.246 15.092H55.148L51.278 9.11101V17.449H45.776L45.777 0.627014ZM67.513 0.627014H73.137V11.889H81.044V17.45H67.513V0.627014Z" fill="#585555"/>
</svg>
