<svg width="124" height="122" viewBox="0 0 124 122" fill="none" xmlns="http://www.w3.org/2000/svg">
<path fill-rule="evenodd" clip-rule="evenodd" d="M61.409 96.219C63.201 97.701 65.302 98.333 67.57 98.45C68.508 98.499 69.473 98.453 70.396 98.285C71.86 98.019 73.32 97.685 74.744 97.256C77.644 96.381 80.15 94.869 82.021 92.427C83.087 91.035 83.962 89.53 84.524 87.866C84.988 86.493 85.424 85.106 85.771 83.701C86.045 82.594 86.181 81.451 86.347 80.32C86.458 79.572 86.525 78.816 86.594 78.061C86.706 76.836 86.823 75.613 86.904 74.385C86.961 73.531 86.959 72.673 86.992 71.818C87.003 71.557 87.045 71.298 87.07 71.039C87.091 70.798 87.213 70.715 87.459 70.719C88.323 70.732 89.189 70.754 90.052 70.715C91.019 70.672 91.993 70.63 92.945 70.471C94.2997 70.2441 95.6437 69.9572 96.973 69.611C98.541 69.2 99.98 68.465 101.366 67.629C102.978 66.654 104.45 65.511 105.641 64.038C106.68 62.756 107.172 61.27 106.921 59.649C106.557 57.294 104.578 55.751 102.277 55.646C101.443 55.608 100.597 55.696 99.767 55.801C98.762 55.929 97.772 56.155 96.77 56.304C96.078 56.408 95.377 56.454 94.687 56.526L94.668 56.436C95.958 53.999 97.302 51.59 98.522 49.12C99.459 47.224 100.259 45.261 101.086 43.311C102.456 40.083 103.549 36.756 104.455 33.373C105.322 30.135 106.064 26.862 106.299 23.502C106.393 22.161 106.458 20.814 106.449 19.471C106.443 18.399 106.327 17.326 106.22 16.258C106.098 15.034 105.728 13.874 105.216 12.758C104.542 11.286 103.495 10.079 102.394 8.933C101.513 8.015 100.543 7.179 99.582 6.343C98.211 5.151 96.669 4.198 95.069 3.353C93.2553 2.38965 91.3339 1.64446 89.345 1.133C88.1331 0.827419 86.9133 0.553658 85.687 0.312C85.251 0.224 84.811 0 84.372 0H76.104C75.805 0 75.509 0.196 75.208 0.229C73.2292 0.444984 71.2755 0.848463 69.373 1.434C68.663 1.653 68.015 1.525 67.34 1.462C66.822 1.414 66.313 1.281 65.795 1.255C63.824 1.157 61.851 1.015 59.879 1.036C57.991 1.056 56.122 1.368 54.295 1.886C52.766 2.322 51.269 2.851 49.897 3.656C49.311 4 48.845 3.935 48.238 3.761C46.1994 3.1638 44.1432 2.62888 42.072 2.157C40.781 1.868 39.452 1.722 38.133 1.586C36.8671 1.45452 35.5964 1.37545 34.324 1.349C33.082 1.322 31.832 1.323 30.595 1.433C28.626 1.608 26.695 2.008 24.817 2.654C22.7469 3.36177 20.8125 4.41721 19.097 5.775C17.347 7.16 15.943 8.849 14.816 10.78C13.627 12.817 12.81 14.998 12.304 17.287C12.029 18.528 12.13 19.804 11.941 21.064C11.883 21.454 12 21.846 12 22.238V27.723C12 28.087 11.893 28.452 11.939 28.818C12.052 29.697 12.013 30.583 12.162 31.456C12.396 32.838 12.607 34.215 12.891 35.587C13.288 37.504 13.667 39.419 14.107 41.327C14.427 42.716 14.774 44.097 15.155 45.47C15.735 47.568 16.301 49.669 16.958 51.742C17.569 53.669 18.265 55.568 18.96 57.468C19.9123 60.0953 21.0796 62.6395 22.45 65.075C23.645 67.186 25.008 69.163 26.838 70.788C28.045 71.86 29.386 72.683 30.947 73.095C32.1664 73.4189 33.4445 73.4545 34.68 73.199C36.1122 72.9079 37.4503 72.2673 38.575 71.334C38.707 71.227 38.85 71.144 39.007 71.342C39.601 72.094 40.395 72.596 41.226 73.029C43.468 74.199 45.911 74.55 48.392 74.692C48.994 74.726 49.6 74.64 50.205 74.624C51.386 74.591 52.532 74.361 53.659 74.035C54.251 73.864 54.828 73.646 55.43 73.444C55.461 74.085 55.501 74.701 55.521 75.318L55.604 78.681C55.62 79.193 55.64 79.705 55.687 80.215C55.809 81.529 55.928 82.843 56.085 84.153C56.193 85.056 56.307 85.965 56.519 86.847C56.9452 88.6244 57.5281 90.3606 58.261 92.035C58.9626 93.6602 60.0418 95.0946 61.409 96.219ZM57.818 79.451C57.747 77.872 57.694 76.2922 57.659 74.712C57.617 72.77 57.603 70.827 57.576 68.885L57.571 68.811C56.584 69.404 55.611 70.052 54.582 70.587C53.375 71.214 52.065 71.577 50.708 71.68C49.645 71.76 48.566 71.833 47.508 71.749C45.772 71.608 44.036 71.337 42.482 70.481C41.852 70.134 41.194 69.711 40.759 69.158C39.718 67.829 40.217 66.15 41.787 65.342C42.872 64.782 44.056 64.549 45.232 64.277C46.2557 64.0449 47.2686 63.768 48.268 63.447C49.254 63.124 49.876 62.324 50.491 61.539L51.465 60.287L50.294 60.165C49.132 60.057 48.023 59.736 46.963 59.266C46.057 58.865 46.043 58.821 45.377 59.543C44.267 60.748 43.187 61.983 42.098 63.209C41.297 64.111 40.502 65.018 39.703 65.923C38.915 66.818 38.175 67.763 37.324 68.595C36.062 69.831 34.54 70.574 32.724 70.49C31.559 70.436 30.493 70.028 29.533 69.361C27.554 67.983 26.221 66.053 25.006 64.028C23.451 61.432 22.256 58.667 21.235 55.827C20.528 53.863 19.817 51.898 19.201 49.906C18.53 47.741 17.941 45.551 17.362 43.359C16.924 41.706 16.536 40.039 16.166 38.369C15.7401 36.4707 15.346 34.5655 14.984 32.654C14.743 31.363 14.604 30.053 14.409 28.754C14.146 27.001 14.098 25.234 14.194 23.475C14.279 21.89 14.506 20.31 14.732 18.736C15.045 16.558 15.763 14.503 16.795 12.562C17.4316 11.3792 18.2118 10.2795 19.118 9.288C20.608 7.639 22.411 6.448 24.417 5.553C25.818 4.928 27.299 4.553 28.808 4.258C31.048 3.822 33.308 3.84 35.568 3.886C36.556 3.907 37.541 4.086 38.528 4.185C40.654 4.396 42.737 4.844 44.794 5.395C46.294 5.797 47.763 6.319 49.249 6.771C49.397 6.816 49.616 6.812 49.739 6.733C51.754 5.417 53.955 4.549 56.298 4.052C57.187 3.864 58.105 3.781 59.014 3.723C60.118 3.654 61.233 3.588 62.335 3.653C63.66 3.729 64.981 3.924 66.298 4.104C66.938 4.192 67.562 4.413 68.202 4.473C68.51 4.502 68.835 4.279 69.159 4.203C70.813 3.82 72.46 3.395 74.129 3.094C75.371 2.87 76.641 2.764 77.903 2.692C79.313 2.611 80.731 2.552 82.139 2.62C83.919 2.706 85.686 2.959 87.43 3.365C89.592 3.868 91.664 4.598 93.635 5.612C95.108 6.371 96.507 7.249 97.768 8.329C98.594 9.038 99.44 9.737 100.185 10.527C101.105 11.501 102.043 12.474 102.621 13.721C103.056 14.662 103.366 15.636 103.452 16.665C103.558 17.946 103.687 19.231 103.676 20.514C103.665 21.74 103.497 22.965 103.379 24.189C103.108 26.977 102.503 29.705 101.766 32.397C101.151 34.6206 100.454 36.8208 99.677 38.993C98.968 40.996 98.149 42.962 97.322 44.921C96.7124 46.3714 96.0507 47.7994 95.338 49.202C93.984 51.854 92.576 54.479 90.947 56.979C90.666 57.41 90.399 57.852 90.125 58.293C90.836 58.772 91.641 58.941 92.451 59.029C93.222 59.112 94.008 59.163 94.778 59.105C96.011 59.013 97.24 58.837 98.466 58.666C99.68 58.496 100.869 58.151 102.117 58.242C103.361 58.333 104.253 59.279 104.168 60.445C104.114 61.183 103.775 61.816 103.285 62.357C100.97 64.911 98.064 66.459 94.74 67.222C93.477 67.512 92.175 67.661 90.882 67.782C89.7778 67.8795 88.6685 67.9055 87.561 67.86C86.749 67.83 85.944 67.644 85.114 67.524C85.03 68.283 84.951 69.074 84.855 69.862L84.468 72.885C84.351 73.843 84.26 74.805 84.139 75.763C84.021 76.693 83.874 77.618 83.75 78.547C83.635 79.412 83.55 80.282 83.42 81.146C83.223 82.47 83.034 83.797 82.775 85.111C82.465 86.681 81.991 88.201 81.214 89.618C80.268 91.347 78.927 92.664 77.219 93.639C75.459 94.644 73.534 95.167 71.585 95.605C70.203 95.916 68.782 95.966 67.383 95.839C64.958 95.62 62.888 94.583 61.323 92.702C59.83 90.907 58.819 88.851 58.458 86.522C58.288 85.4138 58.156 84.3002 58.062 83.183C57.9537 81.9409 57.8724 80.6966 57.818 79.451ZM60.544 63.497C60.559 64.327 60.473 65.157 60.477 65.987C60.494 69.85 60.522 73.714 60.555 77.578C60.561 78.209 60.592 78.842 60.637 79.472C60.732 80.792 60.826 82.113 60.954 83.429C61.046 84.364 61.171 85.296 61.318 86.224C61.528 87.537 62.126 88.707 62.804 89.826C63.388 90.788 64.149 91.604 65.15 92.168C66.852 93.125 68.683 93.205 70.529 92.853C71.776 92.616 73.002 92.233 74.212 91.838C75.4029 91.4561 76.4902 90.8057 77.39 89.937C78.239 89.115 78.841 88.112 79.247 87.005C80.034 84.859 80.281 82.598 80.606 80.356C80.728 79.516 80.834 78.674 80.945 77.833C81.072 76.876 81.2 75.92 81.322 74.963C81.414 74.249 81.496 73.536 81.583 72.823C81.708 71.799 81.839 70.776 81.958 69.752C82.049 68.96 82.125 68.165 82.207 67.371C82.311 66.356 82.422 65.344 82.513 64.327C82.581 63.557 82.553 62.772 82.69 62.015C82.941 60.628 83.597 59.448 84.827 58.684C85.341 58.366 85.923 58.156 86.493 57.886L86.395 57.737C85.868 57.053 85.328 56.38 84.811 55.688C83.999 54.602 83.415 53.391 82.828 52.174C82.272 51.02 81.592 49.928 81.007 48.787C79.986 46.797 78.946 44.812 78.005 42.785C76.822 40.235 75.89 37.597 75.597 34.773C75.472 33.579 75.44 32.385 75.683 31.202C76.07 29.312 77.056 27.834 78.716 26.82C80.256 25.88 81.971 25.576 83.728 25.481C84.818 25.422 85.915 25.47 87.046 25.47L87.009 25.279C86.305 23.807 85.648 22.31 84.877 20.874C83.791 18.846 82.399 17.018 80.851 15.321C79.7087 14.0592 78.4535 12.9044 77.101 11.871C75.763 10.858 74.353 9.953 72.848 9.214C71.0601 8.32468 69.1719 7.65321 67.224 7.214C65.339 6.796 63.444 6.54 61.51 6.519C59.862 6.501 58.224 6.577 56.618 6.948C54.194 7.509 51.977 8.507 50.05 10.123C48.9827 11.0177 48.0292 12.04 47.211 13.167C46.244 14.492 45.466 15.926 44.8 17.427C43.886 19.488 43.259 21.631 42.829 23.835C42.615 24.935 42.447 26.042 42.276 27.149C42.216 27.538 42.212 27.933 42.176 28.378L42.908 27.997L43.622 27.677C46.039 26.572 48.542 25.861 51.232 25.942C52.376 25.976 53.468 26.203 54.486 26.704C56.436 27.666 57.576 29.301 58.072 31.369C58.414 32.797 58.649 34.253 58.877 35.706C59.055 36.84 59.238 37.986 59.258 39.13C59.287 40.802 59.203 42.478 59.112 44.149C59.0342 45.5699 58.7402 46.9707 58.24 48.303C57.336 50.719 56.328 53.096 55.387 55.498C55.076 56.292 54.837 57.113 54.544 57.986L55.732 57.987C55.876 57.99 56.023 57.994 56.162 58.027C57.243 58.282 58.182 58.772 58.951 59.604C59.979 60.708 60.517 62 60.544 63.497ZM39.897 52.042C39.2843 50.6001 38.9146 49.0667 38.803 47.504C38.699 46.03 38.874 44.564 39.026 43.096C39.172 41.675 39.296 40.247 39.338 38.821C39.409 36.474 39.251 34.133 39.139 31.788C39.072 30.392 39.234 28.979 39.358 27.58C39.47 26.32 39.61 25.057 39.849 23.815C40.248 21.731 40.779 19.677 41.534 17.686C42.249 15.798 43.073 13.961 44.233 12.306C45.03 11.17 45.932 10.111 46.799 9.001L46.541 8.909C43.718 8.013 40.848 7.311 37.895 7.006C36.5 6.861 35.099 6.777 33.7 6.693C33.27 6.668 32.834 6.726 32.403 6.767C31.336 6.87 30.255 6.91 29.205 7.11C27.418 7.45 25.703 8.022 24.116 8.953C22.7115 9.77943 21.4802 10.8698 20.49 12.164C19.383 13.595 18.636 15.213 18.101 16.937C17.469 18.972 17.167 21.067 17.086 23.18C17.015 25.033 16.98 26.896 17.3 28.742C17.537 30.115 17.696 31.504 17.958 32.873C18.3102 34.7396 18.7057 36.5977 19.144 38.446C19.777 41.09 20.411 43.736 21.162 46.348C21.88 48.849 22.689 51.328 23.569 53.778C24.287 55.777 25.118 57.739 25.993 59.674C26.563 60.935 27.253 62.149 27.977 63.329C28.746 64.583 29.622 65.773 30.808 66.683C32.307 67.831 33.466 68.01 34.99 66.749C35.642 66.21 36.193 65.542 36.761 64.907C37.662 63.899 38.532 62.861 39.43 61.848C40.573 60.559 41.73 59.283 42.879 57.998C43.122 57.727 43.357 57.447 43.593 57.173L43.2 56.83C41.7833 55.4766 40.6591 53.847 39.897 52.042ZM83.238 13.639C84.1778 14.7308 85.0693 15.8632 85.91 17.033C87.5213 19.2925 88.8182 21.7604 89.765 24.369C90.185 25.524 90.521 26.69 90.371 27.953C90.267 28.838 90.274 29.735 90.197 30.625C90.132 31.365 90.014 32.101 89.919 32.839C89.775 33.951 89.567 35.061 89.505 36.178C89.445 37.242 89.508 38.316 89.575 39.381C89.642 40.464 89.788 41.542 89.887 42.622C89.999 43.849 90.151 45.073 90.185 46.302C90.213 47.31 90.123 48.323 90.036 49.331C89.9242 50.5387 89.6309 51.7227 89.166 52.843C88.843 53.637 88.458 54.405 88.095 55.199L88.241 55.353L88.463 55.525L88.688 55.125C90.5764 52.1538 92.2542 49.0539 93.709 45.848C94.6418 43.7787 95.5267 41.6881 96.363 39.578C97.6669 36.2978 98.7203 32.9235 99.514 29.484C99.874 27.94 100.15 26.372 100.394 24.804C100.585 23.578 100.743 22.338 100.779 21.101C100.816 19.789 100.744 18.467 100.623 17.159C100.532 16.171 100.288 15.177 99.67 14.372C98.674 13.079 97.6 11.843 96.279 10.864C95.166 10.041 94.056 9.194 92.863 8.502C90.97 7.403 88.921 6.673 86.78 6.175C84.689 5.688 82.573 5.478 80.443 5.433C79.187 5.406 77.925 5.541 76.672 5.66C75.536 5.766 74.407 5.948 73.264 6.098C74.491 6.788 75.702 7.402 76.842 8.125C79.242 9.645 81.394 11.474 83.238 13.639ZM52.058 56.202C52.833 53.722 53.89 51.352 54.913 48.97C55.744 47.037 56.197 45.002 56.348 42.91C56.423 41.879 56.403 40.835 56.352 39.801C56.3023 38.6506 56.1968 37.5032 56.036 36.363C55.821 34.909 55.577 33.454 55.233 32.027C54.86 30.483 53.92 29.407 52.308 29.01C51.327 28.769 50.351 28.779 49.358 28.936C46.935 29.317 44.717 30.21 42.651 31.518C42.235 31.781 42.005 31.994 42.078 32.589C42.23 33.853 42.263 35.137 42.257 36.412C42.249 38.217 42.172 40.022 42.104 41.826C42.082 42.413 41.997 42.999 41.933 43.584C41.837 44.48 41.65 45.375 41.656 46.27C41.662 47.192 41.756 48.135 41.98 49.028C42.691 51.86 44.195 54.176 46.662 55.811C48.179 56.817 49.857 57.323 51.7 57.42C51.822 56.997 51.935 56.598 52.058 56.202ZM49.162 31.913C48.837 31.232 49.023 30.667 49.775 30.405C49.959 30.342 50.147 30.272 50.337 30.254C50.6 30.228 50.865 30.247 51.13 30.247C52.085 30.253 53.003 30.386 53.79 30.992C54.296 31.382 54.432 31.897 54.104 32.429C53.639 33.182 52.932 33.56 52.062 33.632C50.693 33.745 49.732 33.107 49.162 31.913ZM87.137 31.664L87.448 28.939C87.493 28.575 87.302 28.475 86.996 28.466C86.033 28.44 85.071 28.405 84.108 28.389C83.024 28.369 81.967 28.543 80.963 28.955C79.849 29.414 79.001 30.148 78.654 31.361C78.4001 32.2548 78.32 33.189 78.418 34.113C78.5533 35.5427 78.8772 36.9482 79.381 38.293C80.055 40.086 80.759 41.878 81.602 43.596C82.743 45.921 84.033 48.173 85.245 50.463C85.568 51.074 85.842 51.713 86.179 52.426C86.8595 51.0076 87.2311 49.4608 87.269 47.888C87.302 46.587 87.199 45.283 87.123 43.982C87.076 43.186 86.963 42.394 86.886 41.6C86.779 40.494 86.615 39.387 86.589 38.278C86.564 37.15 86.644 36.016 86.74 34.889C86.83 33.811 87.008 32.74 87.137 31.664ZM84.968 30.79C84.61 31.777 83.846 32.335 82.854 32.498C81.93 32.651 81.12 32.31 80.518 31.572C80.089 31.047 80.253 30.426 80.896 30.07C81.634 29.662 82.445 29.559 83.402 29.497C83.663 29.544 84.053 29.585 84.425 29.69C84.964 29.842 85.164 30.25 84.968 30.79ZM56.37 61.193C55.842 60.761 55.142 60.736 54.64 61.21C54.016 61.8 53.467 62.474 52.918 63.138C52.285 63.906 51.689 64.704 50.873 65.299C49.684 66.164 48.295 66.522 46.901 66.861C45.793 67.131 44.679 67.382 43.568 67.64L43.554 67.784C43.884 67.936 44.203 68.127 44.548 68.236C46.243 68.772 47.968 69.04 49.76 68.888C51.052 68.777 52.284 68.495 53.451 67.942C55.058 67.181 56.295 65.974 57.346 64.572C57.522 64.338 57.602 63.992 57.622 63.69C57.693 62.624 57.152 61.831 56.37 61.193ZM87.315 60.731C86.484 61.01 85.808 61.435 85.607 62.334C85.47 62.942 85.42 63.571 85.367 64.194C85.357 64.304 85.494 64.506 85.598 64.534C86.238 64.703 86.882 64.902 87.536 64.961C88.341 65.034 89.159 65.011 89.969 64.971C90.843 64.927 91.723 64.87 92.585 64.726C94.614 64.384 96.579 63.83 98.323 62.678C98.953 62.263 99.575 61.839 100.201 61.417L100.149 61.328C99.482 61.427 98.817 61.548 98.147 61.619C96.783 61.765 95.418 61.919 94.049 61.998C93.388 62.036 92.718 61.909 92.052 61.855C90.934 61.764 89.842 61.516 88.897 60.918C88.352 60.574 87.896 60.536 87.315 60.731Z" fill="#585555"/>
<path d="M0.834991 99.184C2.27078 98.9511 3.72346 98.8381 5.17799 98.846C7.41299 98.846 9.05199 99.366 10.092 100.302C11.054 101.134 11.626 102.408 11.626 103.969C11.626 105.555 11.157 106.803 10.273 107.713C9.07699 108.987 7.12699 109.637 4.91699 109.637C4.24099 109.637 3.61699 109.611 3.09799 109.481V116.502H0.834991V99.184ZM3.09799 107.634C3.59199 107.764 4.21599 107.816 4.96999 107.816C7.69899 107.816 9.36399 106.49 9.36399 104.072C9.36399 101.758 7.72599 100.64 5.22999 100.64C4.24199 100.64 3.48799 100.718 3.09799 100.822V107.634ZM25.328 110.104C25.328 114.758 22.103 116.787 19.061 116.787C15.655 116.787 13.029 114.291 13.029 110.312C13.029 106.1 15.785 103.63 19.269 103.63C22.884 103.629 25.328 106.256 25.328 110.104ZM15.344 110.234C15.344 112.99 16.93 115.07 19.166 115.07C21.35 115.07 22.987 113.016 22.987 110.182C22.987 108.05 21.922 105.346 19.217 105.346C16.512 105.346 15.344 107.842 15.344 110.234ZM27.901 114.16C28.577 114.602 29.773 115.07 30.917 115.07C32.581 115.07 33.361 114.238 33.361 113.198C33.361 112.106 32.712 111.508 31.021 110.884C28.759 110.078 27.693 108.83 27.693 107.322C27.693 105.294 29.331 103.63 32.035 103.63C33.309 103.63 34.428 103.994 35.13 104.41L34.558 106.074C33.7842 105.597 32.8929 105.345 31.984 105.346C30.632 105.346 29.878 106.126 29.878 107.062C29.878 108.102 30.633 108.57 32.271 109.194C34.455 110.026 35.573 111.118 35.573 112.99C35.573 115.2 33.857 116.76 30.867 116.76C29.489 116.76 28.215 116.422 27.331 115.902L27.901 114.16ZM41.266 100.301V103.915H44.541V105.657H41.266V112.443C41.266 114.003 41.707 114.887 42.982 114.887C43.4289 114.893 43.8748 114.841 44.308 114.731L44.412 116.447C43.971 116.629 43.268 116.759 42.385 116.759C41.319 116.759 40.46 116.421 39.914 115.797C39.265 115.121 39.03 114.003 39.03 112.521V105.657H37.08V103.915H39.03V100.899L41.266 100.301ZM57.802 103.916C57.749 104.826 57.698 105.84 57.698 107.374V114.68C57.698 117.566 57.126 119.334 55.904 120.427C54.682 121.571 52.914 121.935 51.328 121.935C49.82 121.935 48.156 121.571 47.141 120.895L47.713 119.153C48.545 119.673 49.845 120.141 51.405 120.141C53.745 120.141 55.461 118.919 55.461 115.747V114.343H55.409C54.707 115.513 53.355 116.449 51.405 116.449C48.285 116.449 46.049 113.797 46.049 110.312C46.049 106.048 48.831 103.63 51.717 103.63C53.902 103.63 55.098 104.774 55.644 105.814H55.696L55.8 103.916H57.802ZM55.436 108.882C55.436 108.492 55.41 108.154 55.306 107.842C54.89 106.516 53.772 105.424 52.108 105.424C49.923 105.424 48.364 107.27 48.364 110.182C48.364 112.652 49.612 114.706 52.082 114.706C53.486 114.706 54.76 113.822 55.254 112.366C55.384 111.976 55.437 111.534 55.437 111.144L55.436 108.882ZM61.337 107.842C61.337 106.36 61.311 105.086 61.233 103.916H63.236L63.313 106.386H63.417C63.989 104.696 65.367 103.63 66.901 103.63C67.161 103.63 67.342 103.656 67.55 103.708V105.866C67.2942 105.81 67.0328 105.784 66.771 105.788C65.159 105.788 64.014 107.01 63.703 108.726C63.6388 109.078 63.604 109.434 63.599 109.792V116.5H61.337V107.842ZM70.854 110.624C70.906 113.718 72.881 114.992 75.169 114.992C76.808 114.992 77.795 114.706 78.653 114.342L79.043 115.98C78.237 116.344 76.859 116.76 74.857 116.76C70.983 116.76 68.669 114.212 68.669 110.416C68.669 106.62 70.905 103.629 74.571 103.629C78.679 103.629 79.771 107.243 79.771 109.557C79.771 110.025 79.719 110.389 79.693 110.623L70.854 110.624ZM77.562 108.986C77.587 107.53 76.963 105.268 74.39 105.268C72.076 105.268 71.062 107.4 70.879 108.986H77.562ZM82.371 113.744C83.5968 114.48 84.9972 114.875 86.427 114.888C88.741 114.888 90.093 113.666 90.093 111.898C90.093 110.26 89.157 109.324 86.791 108.414C83.931 107.4 82.163 105.918 82.163 103.448C82.163 100.718 84.425 98.69 87.831 98.69C89.625 98.69 90.925 99.106 91.705 99.548L91.081 101.394C90.0581 100.844 88.9143 100.558 87.753 100.562C85.361 100.562 84.451 101.992 84.451 103.188C84.451 104.826 85.516 105.632 87.935 106.568C90.899 107.713 92.407 109.142 92.407 111.716C92.407 114.42 90.405 116.76 86.271 116.76C84.581 116.76 82.735 116.266 81.798 115.642L82.371 113.744ZM109.957 119.074C107.697 118.481 105.459 117.804 103.249 117.046C102.885 116.916 102.521 116.786 102.183 116.786C98.023 116.63 94.461 113.562 94.461 107.92C94.461 102.304 97.893 98.69 102.625 98.69C107.383 98.69 110.478 102.382 110.478 107.556C110.478 112.054 108.398 114.94 105.486 115.954V116.058C107.228 116.5 109.126 116.916 110.608 117.176L109.957 119.074ZM108.085 107.66C108.085 104.15 106.266 100.535 102.547 100.535C98.725 100.535 96.853 104.071 96.879 107.868C96.853 111.586 98.907 114.94 102.443 114.94C106.058 114.94 108.085 111.664 108.085 107.66ZM113.414 98.976H115.677V114.602H123.165V116.5H113.414V98.976Z" fill="#585555"/>
</svg>
