<svg width="128" height="46" viewBox="0 0 128 46" fill="none" xmlns="http://www.w3.org/2000/svg">
<path d="M122 31.3H116.7V28.6H127.2V22.7H117.2C114.6 22.7 111.1 24.8 111.1 28.8V30.8C111.1 34.8 114.5 36.8 117.2 36.8H122.2V39.6L111.4 39.7V45.6H122C124.2 45.6 127.9 44 128 39.6V37.3C128 33.5 124.9 31.3 122 31.3ZM60.4 30.4C60.4 23.1 53.5 22.4 53.5 22.4H41.2V45.5H47.4V40L52.8 45.6H62L54.7 38.2C54.7 38.2 60.4 37.7 60.4 30.4ZM52.3 33.5H47.3V28.2H52.3C52.3 28.2 53.7 28.7 53.7 30.8C53.7 33 52.3 33.5 52.3 33.5ZM75.7 22.6H69.4C64.9 22.6 63.4 26.7 63.4 28.6V45.5H69.7V41.5H75.6V45.5H81.7V28.6C81.7 23.7 77.3 22.6 75.7 22.6ZM75.6 34.9H69.6V29.3C69.6 29.3 69.6 28 71.6 28H73.8C75.5 28 75.6 29.3 75.6 29.3V34.9ZM84.6 22.6H91.2V45.5H84.6V22.6ZM100.4 22.6H93.9V45.5H109.2V39.6H100.4V22.6Z" fill="#585555"/>
<path d="M72.2 19.7C72.8 19.2 73.3 18.8 73.3 18.8C73.3 18.8 56.5 2.00002 37.7 3.90002C28.3 4.70002 16.7 13.3 9.90001 24.6C3.10001 35.9 2.20001 45.5 2.20001 45.5H27.8C27.8 45.5 22.9 23.2 39.1 14.2C42.6 12.5 53.9 6.10002 72.2 19.7ZM55.5 3.50002C55.2 3.30002 54.4 2.90002 52.4 2.40002L52.3 4.50002C53.4 4.90002 54.4 5.30002 55.4 5.70002L55.5 3.50002Z" fill="#585555"/>
<path d="M55.5 14.9L55.6 12.9C54.5 12.7 53.4 12.6 52.4 12.5L52.3 14.5C53.4 14.5 54.4 14.7 55.5 14.9ZM40.4 2.5H40.7L40.1 0.5C39.1 0.5 38.1 0.600001 37 0.700001L37.6 2.6C38.5 2.5 39.4 2.5 40.4 2.5ZM42.6 16.6C43.5 16.1 44.5 15.8 45.4 15.5L44.7 13.4C43.7 13.6 42.7 14 41.9 14.4L42.6 16.6ZM27.2 5.9L25.7 3.7C25 4 24.1 4.5 23.3 5L24.8 7.3C25.6 6.8 26.4 6.3 27.2 5.9ZM33.9 20.4L35.5 22.7C36.1 21.9 36.7 21.1 37.4 20.4L35.9 18.2C35.1 18.9 34.5 19.7 33.9 20.4ZM30.2 27.3C29.7 28.5 29.4 29.7 29.2 30.8L31.8 32.9C31.9 31.6 32.2 30.4 32.5 29.1L30.2 27.3ZM15 15.5L12.7 13.5C11.9 14.3 11 15.1 10.3 15.9L12.8 18C13.5 17.1 14.2 16.3 15 15.5ZM5.20002 29.9L1.50002 28.5C0.900024 29.9 0.200024 31.5 -0.0999756 32.4L3.60002 33.8C4.00002 32.7 4.70002 31.1 5.20002 29.9ZM28.7 39C28.8 40.7 28.9 42.1 29.1 43.1L33 44.5C32.7 43.2 32.4 41.8 32.2 40.3L28.7 39Z" fill="#585555"/>
</svg>
