<svg width="128" height="48" viewBox="0 0 128 48" fill="none" xmlns="http://www.w3.org/2000/svg">
<path d="M24.277 0.611023L21.355 0.803024C12.266 1.39302 4.101 7.78002 1.088 16.654C-0.386 20.996 -0.357 27.816 1.148 31.775L1.523 32.764L2.559 31.309C3.381 30.15 3.779 29.897 4.49 30.072C4.984 30.189 5.852 30.402 6.42 30.543C7.361 30.769 7.431 30.71 7.201 29.857C5.261 22.684 6.627 16.917 11.394 12.148C14.218 9.32502 17.104 7.86302 21.062 7.24802C23.726 6.83502 24.001 6.70102 24.998 5.31302L26.068 3.82302L25.174 2.21502L24.277 0.611023ZM26.537 1.07402C26.372 1.07902 26.257 1.10502 26.205 1.15802C26.092 1.27202 26.297 1.99102 26.66 2.75802C27.317 4.12702 27.308 4.16602 26.307 5.48102L25.293 6.81102L27.816 7.49402C32.666 8.80802 36.606 12.157 38.988 16.994C40.008 19.068 40.235 20.05 40.375 22.932C40.465 24.829 40.34 27.167 40.102 28.125C39.71 29.67 39.762 30.073 40.525 31.65L41.389 33.43L43.156 33.17C44.13 33.029 44.966 32.88 45.021 32.838C45.072 32.791 45.468 31.383 45.898 29.708C47.288 24.276 46.681 18.838 44.092 13.538C42.124 9.51302 37.778 5.19402 33.777 3.29302C31.331 2.13002 27.692 1.04502 26.537 1.07402ZM16.861 13.928L10.377 20.443L11.18 22.01C11.617 22.874 14.45 26.578 17.469 30.246C20.492 33.911 23.08 36.902 23.23 36.889C23.614 36.863 33.945 23.777 35.004 21.981L35.887 20.486L32.623 17.207L29.357 13.927H16.861V13.928ZM76.867 14.252C74.872 14.252 73.308 14.717 72.174 15.645C71.047 16.564 70.484 17.83 70.484 19.445C70.484 20.834 70.892 21.917 71.705 22.699C72.527 23.473 73.855 24.041 75.693 24.404L77.195 24.704C78.447 24.954 79.343 25.328 79.887 25.828C80.438 26.328 80.715 27.028 80.715 27.924C80.715 28.949 80.333 29.736 79.575 30.287C78.811 30.843 77.728 31.117 76.32 31.117C75.3605 31.1123 74.4068 30.9695 73.488 30.693C72.4693 30.3799 71.488 29.9557 70.562 29.428V31.961C71.5405 32.3225 72.5446 32.6103 73.566 32.822C74.4719 33.0118 75.3944 33.1113 76.32 33.119C78.603 33.119 80.33 32.665 81.512 31.758C82.689 30.843 83.282 29.501 83.282 27.736C83.282 26.266 82.842 25.093 81.967 24.216C81.1 23.333 79.748 22.712 77.914 22.356L76.43 22.059C75.083 21.809 74.163 21.479 73.676 21.072C73.194 20.658 72.956 20.048 72.956 19.242C72.956 18.284 73.314 17.549 74.033 17.035C74.761 16.515 75.803 16.255 77.148 16.255C77.9566 16.2604 78.761 16.371 79.541 16.584C80.4504 16.831 81.3354 17.1604 82.185 17.568V15.176C81.2946 14.8837 80.3851 14.6532 79.463 14.486C78.6062 14.3318 77.7375 14.2534 76.867 14.252ZM53.959 14.58V32.76H56.429V25.078H59.105C60.075 25.078 60.843 25.276 61.406 25.672C61.969 26.07 62.553 26.877 63.158 28.098L65.49 32.76H68.133L65.629 27.785C65.129 26.765 64.628 25.962 64.127 25.375C63.627 24.792 63.11 24.412 62.578 24.232C63.598 23.943 64.378 23.419 64.91 22.668C65.442 21.908 65.707 20.961 65.707 19.822C65.707 18.07 65.197 16.762 64.176 15.894C63.15 15.018 61.596 14.58 59.512 14.58H53.959ZM56.432 16.598H59.512C60.702 16.598 61.596 16.871 62.203 17.412C62.805 17.956 63.111 18.759 63.111 19.822C63.111 20.886 62.805 21.695 62.203 22.246C61.596 22.79 60.701 23.059 59.512 23.059H56.432V16.598ZM93.535 18.789C92.542 18.789 91.69 18.987 90.969 19.383C90.249 19.781 89.656 20.384 89.188 21.197V19.117H86.933V37.953H89.187V30.71C89.657 31.524 90.251 32.13 90.971 32.526C91.691 32.921 92.541 33.121 93.535 33.12C95.195 33.12 96.539 32.463 97.572 31.15C98.612 29.827 99.137 28.094 99.137 25.954C99.137 23.808 98.613 22.074 97.572 20.761C96.539 19.446 95.194 18.791 93.535 18.791V18.789ZM108.549 18.789C106.503 18.789 104.876 19.447 103.668 20.762C102.468 22.076 101.869 23.852 101.869 26.082C101.869 28.24 102.503 29.955 103.777 31.227C105.047 32.488 106.767 33.12 108.937 33.119C109.802 33.119 110.659 33.026 111.504 32.838C112.351 32.6619 113.179 32.4054 113.977 32.072V29.943C113.217 30.3599 112.407 30.6806 111.568 30.898C110.756 31.1088 109.919 31.214 109.08 31.211C107.586 31.211 106.424 30.811 105.59 30.006C104.766 29.192 104.301 28.016 104.2 26.471H114.508V25.375C114.508 23.353 113.968 21.755 112.898 20.575C111.834 19.385 110.383 18.789 108.548 18.789H108.549ZM124.059 18.789C121.93 18.789 120.256 19.43 119.035 20.713C117.815 21.989 117.205 23.731 117.205 25.953C117.205 28.143 117.809 29.888 119.022 31.18C120.23 32.474 121.858 33.12 123.916 33.12C124.631 33.1228 125.345 33.0491 126.045 32.9C126.72 32.7558 127.376 32.5351 128 32.242V30.162C127.398 30.5033 126.758 30.7715 126.092 30.961C125.459 31.128 124.807 31.212 124.152 31.211C122.701 31.211 121.574 30.753 120.773 29.834C119.967 28.908 119.568 27.611 119.568 25.954C119.568 24.287 119.968 22.994 120.773 22.074C121.574 21.159 122.7 20.697 124.15 20.697C124.806 20.6974 125.46 20.7869 126.092 20.963C126.758 21.145 127.398 21.408 128 21.746V19.648C127.382 19.3705 126.737 19.1561 126.076 19.008C125.414 18.8618 124.737 18.7884 124.059 18.789ZM92.989 20.666C94.177 20.666 95.106 21.136 95.787 22.074C96.464 23.014 96.805 24.307 96.805 25.954C96.805 27.604 96.464 28.896 95.787 29.834C95.107 30.774 94.177 31.242 92.988 31.242C91.807 31.242 90.88 30.773 90.203 29.834C89.523 28.896 89.187 27.604 89.187 25.954C89.187 24.306 89.522 23.014 90.203 22.074C90.88 21.136 91.808 20.666 92.989 20.666ZM108.579 20.697C109.681 20.697 110.569 21.065 111.239 21.793C111.903 22.523 112.247 23.498 112.271 24.719L104.277 24.734C104.391 23.452 104.823 22.462 105.574 21.762C106.325 21.054 107.328 20.697 108.579 20.697ZM4.528 31.228C3.948 31.213 3.725 31.466 3.181 32.131C2.031 33.539 2.051 34.243 3.306 36.238C6.723 41.67 11.319 45.112 17.206 46.656C20.636 47.556 25.825 47.638 28.966 46.84C34.319 45.487 39.726 41.784 42.546 37.533C44.732 34.239 44.733 34.175 42.506 34.437L40.603 34.664L39.878 33.062C39.483 32.178 39.029 31.457 38.874 31.457C38.717 31.457 38.364 32.009 38.083 32.677C37.806 33.351 36.66 34.845 35.534 35.998C30.363 41.294 22.334 42.654 15.739 39.35C13.608 38.281 10.059 35.104 8.894 33.219C8.294 32.244 7.706 31.888 6.103 31.518C5.353 31.344 4.876 31.238 4.528 31.228Z" fill="#585555"/>
</svg>
