<svg width="90" height="123" viewBox="0 0 90 123" fill="none" xmlns="http://www.w3.org/2000/svg">
<path d="M63.518 51.655C50.598 59.981 37.796 68.232 24.656 76.698L83.371 84.714L63.518 51.655ZM88.927 14.812L65.881 49.48C65.55 49.98 65.121 50.376 65.587 51.144C71.331 60.627 77.028 70.14 82.739 79.642C83.64 81.143 84.552 82.638 85.718 84.078L89.181 14.887L88.927 14.812ZM10.529 44.38C10.798 44.635 11.469 44.782 11.78 44.629C17.289 41.921 22.833 39.274 28.222 36.343C29.978 35.389 31.328 33.676 32.843 32.288C37.8548 27.6892 42.8618 23.0852 47.864 18.476C48.171 18.193 48.532 17.92 48.716 17.563C50.513 14.05 52.278 10.521 54.107 6.88801C51.926 6.07101 49.859 5.26801 47.767 4.53801C47.483 4.43901 47.037 4.63601 46.727 4.80801C41.884 7.51401 36.95 10.075 32.26 13.026C29.913 14.502 28.001 16.677 25.923 18.573C22.576 21.629 19.231 24.692 15.931 27.802C15.0506 28.6361 14.2611 29.5613 13.576 30.562C11.318 33.848 9.12997 37.181 6.83897 40.61C8.12097 41.936 9.28397 43.202 10.529 44.38ZM30.662 39.887C27.923 51.464 25.197 62.975 22.383 74.865L61.284 49.8L30.662 39.887ZM52.499 20.446L63.719 47.738C71.043 36.737 78.221 25.953 85.562 14.923L52.499 20.446ZM31.122 37.519L61.134 47.262C57.373 38.099 53.741 29.257 50.033 20.227L31.122 37.519ZM10.944 51.131L0.439971 76.24L20.445 75.649L10.944 51.131ZM20.683 69.826L20.931 69.772C23.332 59.784 25.769 49.865 28.222 39.488L12.172 47.829C14.907 54.941 17.825 62.441 20.683 69.826ZM81.525 13.304C78.33 12.458 75.138 11.608 71.94 10.768C67.347 9.56101 62.75 8.36701 58.159 7.14801C57.586 6.99601 57.17 6.89701 56.833 7.58801C55.211 10.912 53.537 14.212 51.889 17.523C51.838 17.626 51.848 17.76 51.809 18.015L81.519 13.513L81.525 13.304ZM62.993 5.74201L89.03 12.945L84.728 0.687007L63.032 5.49801L62.993 5.74201ZM70.875 85.1L49.514 82.184C40.641 80.973 31.784 79.64 22.891 78.615C19.666 78.244 16.355 78.586 13.085 78.641C10.398 78.687 7.71097 78.789 5.02497 78.874C4.74797 78.882 4.47197 78.938 4.19697 79.235C26.407 81.289 48.619 83.342 70.828 85.397L70.875 85.1ZM0.87797 68.576C3.74197 61.935 6.58997 55.289 9.46397 48.654C9.75197 47.987 9.73097 47.536 9.16797 47.001C7.96497 45.856 6.84897 44.623 5.53397 43.257L0.292969 69.128L0.48597 69.22C0.61897 69.006 0.77997 68.806 0.87797 68.576ZM57.29 3.98901C62.117 2.74301 67.014 1.77101 71.882 0.684007C72.196 0.613007 72.504 0.509007 72.814 0.420007L72.767 0.182007L51.851 2.99501C53.816 3.85401 55.329 4.49501 57.29 3.98901ZM11.975 106.422V114.969H7.25097V92.692H13.742C16.768 92.692 19.008 93.243 20.461 94.345C21.914 95.447 22.641 97.121 22.641 99.365C22.641 100.676 22.28 101.842 21.558 102.862C20.837 103.883 19.817 104.684 18.495 105.263L25.048 114.968H19.806L14.489 106.421L11.975 106.422ZM11.975 102.582H13.499C14.991 102.582 16.094 102.332 16.805 101.835C17.515 101.337 17.871 100.555 17.871 99.489C17.871 98.432 17.508 97.681 16.781 97.234C16.055 96.787 14.93 96.563 13.407 96.563H11.974L11.975 102.582ZM39.553 114.969L38.929 112.79H38.685C38.187 113.583 37.481 114.194 36.568 114.626C35.653 115.058 34.611 115.273 33.444 115.273C31.442 115.273 29.934 114.738 28.918 113.666C27.902 112.594 27.395 111.053 27.395 109.042V97.934H32.042V107.884C32.042 109.113 32.261 110.035 32.698 110.65C33.134 111.265 33.829 111.571 34.784 111.571C36.085 111.571 37.024 111.136 37.603 110.269C38.182 109.4 38.472 107.961 38.472 105.95V97.935H43.119V114.97L39.553 114.969ZM57.472 97.613C59.483 97.613 61.058 98.399 62.197 99.968C63.334 101.537 63.902 103.688 63.902 106.421C63.902 109.234 63.315 111.413 62.143 112.956C60.969 114.501 59.372 115.272 57.35 115.272C55.349 115.272 53.78 114.545 52.642 113.092H52.322L51.546 114.967H47.995V91.26H52.642V96.776C52.642 97.477 52.58 98.599 52.458 100.144H52.642C53.728 98.458 55.339 97.613 57.472 97.613ZM55.978 101.332C54.831 101.332 53.993 101.685 53.465 102.391C52.937 103.098 52.661 104.263 52.642 105.889V106.391C52.642 108.22 52.913 109.53 53.456 110.323C54 111.115 54.861 111.511 56.04 111.511C56.994 111.511 57.753 111.071 58.317 110.193C58.881 109.315 59.163 108.037 59.163 106.361C59.163 104.685 58.878 103.427 58.309 102.589C57.741 101.751 56.964 101.332 55.978 101.332ZM64.999 97.934H70.088L73.303 107.518C73.577 108.351 73.766 109.336 73.866 110.474H73.958C74.069 109.428 74.287 108.442 74.612 107.518L77.766 97.934H82.748L75.541 117.148C74.881 118.925 73.939 120.256 72.716 121.14C71.491 122.024 70.062 122.465 68.426 122.465C67.623 122.465 66.836 122.379 66.065 122.206V118.519C66.665 118.655 67.278 118.721 67.893 118.716C68.715 118.716 69.434 118.465 70.049 117.962C70.664 117.46 71.144 116.701 71.488 115.685L71.762 114.846L64.999 97.934Z" fill="#585555"/>
</svg>
