<svg width="128" height="16" viewBox="0 0 128 16" fill="none" xmlns="http://www.w3.org/2000/svg">
<path d="M13.227 0.0739746C9.699 0.0739746 7.5 1.85197 6.625 5.37397C7.95 3.60297 9.5 2.94997 11.25 3.39897C12.25 3.64897 12.978 4.37597 13.774 5.19997C15.074 6.52397 16.574 8.05198 19.852 8.05198C23.375 8.05198 25.575 6.27397 26.45 2.75097C25.126 4.52397 23.575 5.17597 21.825 4.72697C20.825 4.47697 20.102 3.75097 19.301 2.92697C18.001 1.60297 16.5 0.0739746 13.227 0.0739746ZM57.149 0.550972V14.125H59.149V0.549973L57.149 0.550972ZM53.825 0.874973C53.125 0.874973 52.551 1.44897 52.551 2.14797C52.551 2.82397 53.126 3.42497 53.825 3.42497C54.524 3.42497 55.125 2.82497 55.102 2.14797C55.102 1.44897 54.525 0.874973 53.825 0.874973ZM76.825 0.874973C76.125 0.874973 75.551 1.44897 75.551 2.14797C75.551 2.82497 76.126 3.42497 76.825 3.42497C77.552 3.42497 78.125 2.82497 78.102 2.14797C78.102 1.44897 77.525 0.874973 76.825 0.874973ZM98.177 1.10098V6.12497C97.477 5.14797 96.376 4.55097 94.927 4.55097C92.399 4.55097 90.302 6.67597 90.302 9.44897C90.302 12.199 92.399 14.351 94.927 14.351C96.376 14.351 97.477 13.751 98.177 12.773V14.125H100.177V1.10197L98.177 1.10098ZM37.353 1.72598L35.353 2.32397V4.82397H33.65V6.74997H35.353V11.226C35.353 13.647 36.577 14.5 39.677 14.125V12.324C38.15 12.398 37.377 12.425 37.377 11.226V6.74997H39.65V4.82397H37.353V1.72598ZM45.228 4.55097C42.7 4.55097 40.603 6.67597 40.603 9.44897C40.603 12.199 42.701 14.351 45.228 14.351C46.678 14.351 47.775 13.751 48.478 12.773V14.125H50.478V4.82397H48.478V6.12397C47.774 5.14797 46.677 4.55097 45.228 4.55097ZM85.052 4.57397C83.802 4.57397 82.802 5.05097 82.177 6.05097V4.85098H80.177V14.148H82.177V9.14798C82.177 7.24998 83.227 6.47598 84.552 6.47598C85.802 6.47598 86.626 7.19897 86.626 8.62497V14.125H88.626V8.39798C88.626 5.99998 87.126 4.57397 85.052 4.57397ZM106.9 4.57397C104.076 4.57397 101.978 6.69797 101.978 9.47597C101.978 12.226 104.104 14.375 106.9 14.375C108.729 14.375 110.326 13.425 111.076 11.949L109.353 10.976C108.899 11.823 108.001 12.398 106.876 12.398C105.251 12.398 104.001 11.148 104.001 9.47597C104.001 7.79997 105.228 6.54997 106.876 6.54997C108.001 6.54997 108.927 7.10098 109.326 7.97598L111.052 6.97598C110.302 5.52298 108.729 4.57397 106.9 4.57397ZM115.775 4.60098C113.877 4.60098 112.376 5.69897 112.376 7.44897C112.376 10.772 117.376 9.85197 117.376 11.499C117.376 12.249 116.7 12.551 115.802 12.551C114.774 12.551 114.024 12.051 113.728 11.199L112.001 12.199C112.602 13.523 113.951 14.375 115.802 14.375C117.802 14.375 119.427 13.352 119.427 11.5C119.427 8.04997 114.427 9.07497 114.427 7.37497C114.427 6.72497 115.053 6.39797 115.775 6.42497C116.553 6.42497 117.201 6.74898 117.525 7.47598L119.228 6.52297C118.575 5.30097 117.303 4.60098 115.775 4.60098ZM124.353 4.60098C122.45 4.60098 120.951 5.69897 120.951 7.44897C120.951 10.772 125.951 9.85197 125.951 11.499C125.951 12.249 125.274 12.551 124.376 12.551C123.352 12.551 122.602 12.051 122.302 11.199L120.576 12.199C121.176 13.523 122.524 14.375 124.376 14.375C126.376 14.375 128.001 13.352 128.001 11.5C128.001 8.04997 123.001 9.07497 123.001 7.37497C123.001 6.72497 123.627 6.39797 124.353 6.42497C125.127 6.42497 125.775 6.74898 126.103 7.47598L127.803 6.52297C127.149 5.30097 125.876 4.60098 124.353 4.60098ZM52.826 4.82397V14.124H54.826V4.82397H52.826ZM60.678 4.82397L63.603 14.124H65.576L67.526 7.85098L69.451 14.125H71.428L74.353 4.82397H72.228L70.398 11.25L68.478 4.82397H66.553L64.6 11.25L62.802 4.82397H60.677H60.678ZM75.826 4.82397V14.124H77.826V4.82397H75.826ZM45.525 6.49997C47.201 6.49997 48.478 7.74997 48.478 9.47597C48.478 11.198 47.201 12.449 45.525 12.449C43.853 12.449 42.603 11.199 42.575 9.47597C42.575 7.74897 43.854 6.49997 45.525 6.49997ZM95.228 6.49997C96.9 6.49997 98.177 7.74997 98.177 9.47597C98.177 11.198 96.9 12.449 95.227 12.449C93.552 12.449 92.274 11.199 92.274 9.47597C92.274 7.74897 93.553 6.49997 95.228 6.49997ZM6.603 7.99997C3.075 7.99997 0.876 9.77398 0 13.3C1.324 11.524 2.875 10.875 4.625 11.324C5.625 11.574 6.352 12.301 7.148 13.124C8.449 14.449 9.948 15.976 13.226 15.976C16.749 15.976 18.949 14.199 19.824 10.676C18.5 12.449 16.949 13.102 15.199 12.648C14.199 12.398 13.477 11.675 12.676 10.851C11.399 9.52197 9.899 7.99997 6.603 7.99997Z" fill="#585555"/>
</svg>
