<svg width="128" height="128" viewBox="0 0 128 128" fill="none" xmlns="http://www.w3.org/2000/svg">
<path fill-rule="evenodd" clip-rule="evenodd" d="M90.767 127.126C91.7855 127.523 92.8749 127.706 93.9674 127.664C95.0598 127.622 96.1319 127.356 97.117 126.882L123.47 114.201C124.827 113.548 125.972 112.525 126.774 111.249C127.575 109.974 128 108.498 128 106.992V21.009C128 19.5026 127.575 18.0268 126.774 16.7513C125.973 15.4757 124.827 14.4524 123.47 13.799L97.117 1.12002C95.6279 0.403526 93.9529 0.167622 92.3238 0.444958C90.6947 0.722293 89.1921 1.49915 88.024 2.66802L37.574 48.694L15.6 32.013C14.6087 31.2604 13.3853 30.8785 12.1419 30.9337C10.8985 30.9889 9.7137 31.4776 8.79299 32.315L1.74499 38.726C1.19574 39.2256 0.756806 39.8343 0.456266 40.5132C0.155727 41.1921 0.000200077 41.9262 -0.000364667 42.6687C-0.000929412 43.4111 0.15348 44.1455 0.452987 44.8249C0.752493 45.5043 1.1905 46.1136 1.73899 46.614L20.796 64L1.73999 81.387C1.1918 81.8875 0.754054 82.4968 0.454734 83.1761C0.155413 83.8553 0.00110405 84.5896 0.00166874 85.3318C0.00223343 86.0741 0.15766 86.8081 0.458013 87.4869C0.758366 88.1657 1.19704 88.7744 1.74599 89.274L8.79399 95.685C9.71448 96.5228 10.8993 97.0118 12.1427 97.0672C13.3861 97.1225 14.6097 96.7407 15.601 95.988L37.575 79.308L88.025 125.333C88.8051 126.114 89.7382 126.725 90.767 127.126ZM96.019 34.943L57.74 64L96.02 93.058L96.019 34.943Z" fill="#585555"/>
</svg>
